<svg xmlns="http://www.w3.org/2000/svg" xmlns:xlink="http://www.w3.org/1999/xlink" width="500" zoomAndPan="magnify" viewBox="0 0 375 374.999991" height="500" preserveAspectRatio="xMidYMid meet" version="1.0"><defs><filter x="0%" y="0%" width="100%" height="100%" id="cbd70eba70"><feColorMatrix values="0 0 0 0 1 0 0 0 0 1 0 0 0 0 1 0 0 0 1 0" color-interpolation-filters="sRGB"/></filter><g/><mask id="b1480dde0b"><g filter="url(#cbd70eba70)"><rect x="-37.5" width="450" fill="#000000" y="-37.499999" height="449.999989" fill-opacity="0.12"/></g></mask><clipPath id="87a64bbbf5"><path d="M 0 58 L 4.917969 58 L 4.917969 61 L 0 61 Z M 0 58 " clip-rule="nonzero"/></clipPath><clipPath id="d4fb225f6d"><rect x="0" width="6" y="0" height="65"/></clipPath><clipPath id="1ec082def0"><path d="M 75 138 L 96 138 L 96 154 L 75 154 Z M 75 138 " clip-rule="nonzero"/></clipPath><clipPath id="6410d01469"><path d="M 64.414062 156.683594 L 77.652344 135.769531 L 98.566406 149.003906 L 85.328125 169.917969 Z M 64.414062 156.683594 " clip-rule="nonzero"/></clipPath><clipPath id="4125200489"><path d="M 5.371094 249.988281 L 144.539062 30.074219 L 364.453125 169.246094 L 225.28125 389.15625 Z M 5.371094 249.988281 " clip-rule="nonzero"/></clipPath><clipPath id="d01ad1478c"><path d="M 120 92 L 135 92 L 135 114 L 120 114 Z M 120 92 " clip-rule="nonzero"/></clipPath><clipPath id="b060c12740"><path d="M 104.472656 102.234375 L 126.023438 90.058594 L 138.199219 111.605469 L 116.652344 123.78125 Z M 104.472656 102.234375 " clip-rule="nonzero"/></clipPath><clipPath id="6d6442ffa7"><path d="M 8.34375 156.558594 L 234.917969 28.519531 L 362.957031 255.09375 L 136.382812 383.132812 Z M 8.34375 156.558594 " clip-rule="nonzero"/></clipPath><clipPath id="082867aeee"><path d="M 239 93 L 254 93 L 254 114 L 239 114 Z M 239 93 " clip-rule="nonzero"/></clipPath><clipPath id="096f15d139"><path d="M 258.011719 123.78125 L 236.441406 111.648438 L 248.570312 90.078125 L 270.144531 102.210938 Z M 258.011719 123.78125 " clip-rule="nonzero"/></clipPath><clipPath id="e92b35b286"><path d="M 354.253906 177.910156 L 127.417969 50.335938 L 254.988281 -176.5 L 481.828125 -48.929688 Z M 354.253906 177.910156 " clip-rule="nonzero"/></clipPath><clipPath id="0cd41dc6ac"><path d="M 279 139 L 300 139 L 300 155 L 279 155 Z M 279 139 " clip-rule="nonzero"/></clipPath><clipPath id="5a5c8bf228"><path d="M 290.605469 170.292969 L 276.222656 150.152344 L 296.363281 135.769531 L 310.746094 155.910156 Z M 290.605469 170.292969 " clip-rule="nonzero"/></clipPath><clipPath id="fced01094b"><path d="M 374.921875 245.761719 L 223.664062 33.984375 L 11.882812 185.242188 L 163.140625 397.023438 Z M 374.921875 245.761719 " clip-rule="nonzero"/></clipPath><clipPath id="c27bdba7ed"><path d="M 163 133 L 230.308594 133 L 230.308594 184 L 163 184 Z M 163 133 " clip-rule="nonzero"/></clipPath><clipPath id="ce89da5c42"><path d="M 178 110.113281 L 190 110.113281 L 190 190 L 178 190 Z M 178 110.113281 " clip-rule="nonzero"/></clipPath><clipPath id="af09f9dc11"><path d="M 179 208 L 188 208 L 188 219.613281 L 179 219.613281 Z M 179 208 " clip-rule="nonzero"/></clipPath></defs><g mask="url(#b1480dde0b)"><g transform="matrix(1, 0, 0, 1, 0, 26)"><g clip-path="url(#d4fb225f6d)"><g clip-path="url(#87a64bbbf5)"><path fill="#000000" d="M -4.363281 60.855469 L 3.371094 60.855469 C 5.117188 60.855469 5.117188 58.152344 3.371094 58.152344 L -4.363281 58.152344 C -6.109375 58.152344 -6.109375 60.855469 -4.363281 60.855469 Z M -4.363281 60.855469 " fill-opacity="1" fill-rule="nonzero"/></g></g></g></g><path fill="#fb9400" d="M 77.835938 203.777344 L 61.089844 203.777344 C 57.253906 203.777344 57.253906 209.722656 61.089844 209.722656 L 77.835938 209.722656 C 81.667969 209.722656 81.667969 203.777344 77.835938 203.777344 Z M 77.835938 203.777344 " fill-opacity="1" fill-rule="nonzero"/><path fill="#fb9400" d="M 314.058594 203.777344 L 297.3125 203.777344 C 293.480469 203.777344 293.480469 209.722656 297.3125 209.722656 L 314.058594 209.722656 C 317.894531 209.722656 317.894531 203.777344 314.058594 203.777344 Z M 314.058594 203.777344 " fill-opacity="1" fill-rule="nonzero"/><g clip-path="url(#1ec082def0)"><g clip-path="url(#6410d01469)"><g clip-path="url(#4125200489)"><path fill="#fb9400" d="M 93.984375 148.429688 L 79.835938 139.476562 C 76.59375 137.425781 73.414062 142.449219 76.65625 144.5 L 90.804688 153.453125 C 94.042969 155.503906 97.222656 150.480469 93.984375 148.429688 Z M 93.984375 148.429688 " fill-opacity="1" fill-rule="nonzero"/></g></g></g><path fill="#ffffff" d="M 183.964844 80.226562 L 183.964844 96.972656 C 183.964844 100.804688 189.910156 100.804688 189.910156 96.972656 L 189.910156 80.226562 C 189.910156 76.394531 183.964844 76.394531 183.964844 80.226562 Z M 183.964844 80.226562 " fill-opacity="1" fill-rule="nonzero"/><g clip-path="url(#d01ad1478c)"><g clip-path="url(#b060c12740)"><g clip-path="url(#6d6442ffa7)"><path fill="#fb9400" d="M 134.433594 108.933594 L 126.195312 94.355469 C 124.308594 91.019531 119.132812 93.945312 121.019531 97.28125 L 129.253906 111.859375 C 131.140625 115.199219 136.316406 112.273438 134.433594 108.933594 Z M 134.433594 108.933594 " fill-opacity="1" fill-rule="nonzero"/></g></g></g><g clip-path="url(#082867aeee)"><g clip-path="url(#096f15d139)"><g clip-path="url(#e92b35b286)"><path fill="#ffffff" d="M 248.234375 94.683594 L 240.027344 109.277344 C 238.148438 112.621094 243.332031 115.535156 245.210938 112.191406 L 253.417969 97.597656 C 255.296875 94.253906 250.117188 91.339844 248.234375 94.683594 Z M 248.234375 94.683594 " fill-opacity="1" fill-rule="nonzero"/></g></g></g><g clip-path="url(#0cd41dc6ac)"><g clip-path="url(#5a5c8bf228)"><g clip-path="url(#fced01094b)"><path fill="#fb9400" d="M 280.765625 149.324219 L 294.390625 139.59375 C 297.511719 137.363281 300.964844 142.203125 297.847656 144.429688 L 284.21875 154.164062 C 281.101562 156.390625 277.644531 151.554688 280.765625 149.324219 Z M 280.765625 149.324219 " fill-opacity="1" fill-rule="nonzero"/></g></g></g><path fill="#fb9400" d="M 180.773438 170.640625 C 180.65625 169.726562 181.296875 168.894531 182.210938 168.777344 C 183.117188 168.660156 183.953125 169.304688 184.070312 170.214844 C 184.1875 171.121094 183.542969 171.957031 182.632812 172.074219 C 181.722656 172.191406 180.886719 171.546875 180.773438 170.640625 " fill-opacity="1" fill-rule="nonzero"/><g clip-path="url(#c27bdba7ed)"><path fill="#fb9400" d="M 177.269531 169.253906 C 175.34375 170.597656 173.464844 171.753906 172.46875 172.351562 C 172.46875 172.351562 169.511719 174.988281 163.152344 174.730469 L 166.292969 179.125 C 166.300781 179.339844 167.742188 182.277344 167.726562 182.492188 L 168.398438 183.15625 C 169.667969 177.753906 173.875 176.105469 173.875 176.105469 C 175.867188 174.65625 178.203125 174.515625 178.203125 174.515625 C 178.203125 174.515625 181.566406 176.199219 184.734375 173.882812 C 187.304688 172.003906 187.695312 169.128906 189.417969 167.859375 C 194.59375 164.0625 230.183594 133.320312 230.183594 133.320312 C 230.183594 133.320312 186.851562 163.285156 177.269531 169.253906 " fill-opacity="1" fill-rule="nonzero"/></g><path fill="#fb9400" d="M 161.820312 190.246094 C 157.574219 193.65625 152.1875 194 149.785156 191.011719 C 147.382812 188.019531 148.878906 182.832031 153.125 179.421875 C 157.371094 176.011719 162.757812 175.671875 165.160156 178.660156 C 167.5625 181.648438 166.066406 186.835938 161.820312 190.246094 Z M 167.128906 177.082031 C 164.113281 173.328125 157.347656 173.753906 152.011719 178.035156 C 146.679688 182.320312 144.800781 188.835938 147.816406 192.589844 C 150.835938 196.339844 157.601562 195.914062 162.929688 191.632812 C 168.265625 187.347656 170.140625 180.832031 167.128906 177.082031 " fill-opacity="1" fill-rule="nonzero"/><g clip-path="url(#ce89da5c42)"><path fill="#fb9400" d="M 186.09375 174.078125 C 186 176.421875 186.042969 178.628906 186.078125 179.789062 C 186.078125 179.789062 185.457031 183.703125 189.105469 188.914062 L 183.710938 188.648438 C 183.523438 188.757812 180.277344 189.125 180.101562 189.257812 L 179.183594 189.050781 C 183.042969 185.066406 182.160156 180.632812 182.160156 180.632812 C 182.300781 178.171875 181.160156 176.132812 181.160156 176.132812 C 181.160156 176.132812 177.925781 174.210938 178.164062 170.292969 C 178.359375 167.117188 180.570312 165.230469 180.707031 163.097656 C 181.105469 156.691406 187.769531 110.136719 187.769531 110.136719 C 187.769531 110.136719 185.941406 162.789062 186.09375 174.078125 " fill-opacity="1" fill-rule="nonzero"/></g><path fill="#fb9400" d="M 184.714844 189.347656 C 188.527344 189.753906 191.148438 194.472656 190.570312 199.886719 C 189.992188 205.304688 186.433594 209.363281 182.625 208.957031 C 178.808594 208.550781 176.1875 203.832031 176.765625 198.414062 C 177.34375 193 180.902344 188.941406 184.714844 189.347656 Z M 175 198.226562 C 174.273438 205.027344 177.566406 210.953125 182.355469 211.464844 C 187.144531 211.976562 191.613281 206.878906 192.335938 200.078125 C 193.0625 193.277344 189.769531 187.351562 184.984375 186.839844 C 180.195312 186.328125 175.726562 191.425781 175 198.226562 " fill-opacity="1" fill-rule="nonzero"/><path fill="#181a20" d="M 183.039062 171.875 C 183.867188 171.484375 184.222656 170.492188 183.828125 169.664062 C 183.433594 168.832031 182.441406 168.476562 181.613281 168.871094 C 180.785156 169.261719 180.433594 170.253906 180.824219 171.085938 C 181.21875 171.917969 182.207031 172.269531 183.039062 171.875 " fill-opacity="1" fill-rule="nonzero"/><g clip-path="url(#af09f9dc11)"><path fill="#fb9400" d="M 183.917969 218.660156 C 184.496094 218.976562 185.132812 219.253906 185.84375 219.476562 C 186.519531 219.691406 187.246094 219.316406 187.460938 218.636719 C 187.675781 217.960938 187.300781 217.234375 186.625 217.019531 C 181.277344 215.320312 181.703125 210.304688 181.722656 210.089844 C 181.792969 209.382812 181.273438 208.753906 180.566406 208.683594 C 179.855469 208.613281 179.226562 209.132812 179.15625 209.839844 C 178.941406 212.054688 179.75 216.382812 183.917969 218.660156 " fill-opacity="1" fill-rule="nonzero"/></g><path fill="#fb9400" d="M 183.648438 211.46875 C 183.648438 211.46875 181.644531 211.773438 182.089844 212.800781 C 182.539062 213.824219 180.0625 213.117188 180.0625 213.117188 L 179.203125 211.664062 C 179.203125 211.664062 179.1875 210.613281 178.128906 209.285156 C 177.070312 207.960938 178.359375 208.289062 178.601562 208.421875 C 178.84375 208.554688 184.085938 211.015625 183.648438 211.46875 " fill-opacity="1" fill-rule="nonzero"/><g fill="#ffffff" fill-opacity="1"><g transform="translate(12.282848, 273.218111)"><g><path d="M 33.453125 -41.546875 L 31.15625 -38.640625 C 28.945312 -39.535156 26.890625 -40.101562 24.984375 -40.34375 C 23.078125 -40.59375 21.550781 -40.71875 20.40625 -40.71875 L 19.78125 -40.71875 L 19.78125 -10.234375 C 19.78125 -8.984375 19.796875 -7.851562 19.828125 -6.84375 C 19.867188 -5.84375 19.914062 -4.816406 19.96875 -3.765625 C 20.019531 -2.710938 20.097656 -1.457031 20.203125 0 L 14.28125 0 C 14.382812 -1.457031 14.460938 -2.710938 14.515625 -3.765625 C 14.566406 -4.816406 14.609375 -5.84375 14.640625 -6.84375 C 14.679688 -7.851562 14.703125 -8.984375 14.703125 -10.234375 L 14.703125 -40.71875 L 14.078125 -40.71875 C 12.929688 -40.71875 11.414062 -40.59375 9.53125 -40.34375 C 7.644531 -40.101562 5.578125 -39.535156 3.328125 -38.640625 L 1.03125 -41.546875 Z M 33.453125 -41.546875 "/></g></g></g><g fill="#ffffff" fill-opacity="1"><g transform="translate(46.769399, 273.218111)"><g><path d="M 3.640625 -41.546875 L 9.5625 -41.546875 C 9.457031 -40.097656 9.367188 -38.84375 9.296875 -37.78125 C 9.222656 -36.726562 9.175781 -35.707031 9.15625 -34.71875 C 9.144531 -33.726562 9.140625 -32.59375 9.140625 -31.3125 L 9.140625 -10.234375 C 9.140625 -8.984375 9.144531 -7.851562 9.15625 -6.84375 C 9.175781 -5.84375 9.222656 -4.816406 9.296875 -3.765625 C 9.367188 -2.710938 9.457031 -1.457031 9.5625 0 L 3.640625 0 C 3.742188 -1.457031 3.828125 -2.710938 3.890625 -3.765625 C 3.960938 -4.816406 4.003906 -5.84375 4.015625 -6.84375 C 4.035156 -7.851562 4.046875 -8.984375 4.046875 -10.234375 L 4.046875 -31.3125 C 4.046875 -32.59375 4.035156 -33.726562 4.015625 -34.71875 C 4.003906 -35.707031 3.960938 -36.726562 3.890625 -37.78125 C 3.828125 -38.84375 3.742188 -40.097656 3.640625 -41.546875 Z M 3.640625 -41.546875 "/></g></g></g><g fill="#ffffff" fill-opacity="1"><g transform="translate(59.96154, 273.218111)"><g><path d="M 3.640625 0 C 3.742188 -1.457031 3.828125 -2.710938 3.890625 -3.765625 C 3.960938 -4.816406 4.003906 -5.84375 4.015625 -6.84375 C 4.035156 -7.851562 4.046875 -8.984375 4.046875 -10.234375 L 4.046875 -31.3125 C 4.046875 -32.59375 4.035156 -33.726562 4.015625 -34.71875 C 4.003906 -35.707031 3.960938 -36.726562 3.890625 -37.78125 C 3.828125 -38.84375 3.742188 -40.097656 3.640625 -41.546875 L 9.34375 -41.546875 L 25.609375 -5.875 L 41.078125 -41.546875 L 46.4375 -41.546875 C 46.332031 -40.097656 46.242188 -38.84375 46.171875 -37.78125 C 46.097656 -36.726562 46.050781 -35.707031 46.03125 -34.71875 C 46.019531 -33.726562 46.015625 -32.59375 46.015625 -31.3125 L 46.015625 -10.234375 C 46.015625 -8.984375 46.019531 -7.851562 46.03125 -6.84375 C 46.050781 -5.84375 46.097656 -4.816406 46.171875 -3.765625 C 46.242188 -2.710938 46.332031 -1.457031 46.4375 0 L 40.515625 0 C 40.617188 -1.457031 40.695312 -2.710938 40.75 -3.765625 C 40.800781 -4.816406 40.832031 -5.84375 40.84375 -6.84375 C 40.863281 -7.851562 40.875 -8.984375 40.875 -10.234375 L 40.875 -39.0625 L 23.78125 1.03125 L 22.859375 1.03125 L 4.875 -38.90625 L 4.875 -10.234375 C 4.875 -8.984375 4.882812 -7.851562 4.90625 -6.84375 C 4.925781 -5.84375 4.96875 -4.816406 5.03125 -3.765625 C 5.101562 -2.710938 5.191406 -1.457031 5.296875 0 Z M 3.640625 0 "/></g></g></g><g fill="#ffffff" fill-opacity="1"><g transform="translate(110.02937, 273.218111)"><g><path d="M 3.640625 -41.546875 L 28.15625 -41.546875 L 25.8125 -38.640625 C 24.351562 -39.234375 22.851562 -39.675781 21.3125 -39.96875 C 19.78125 -40.257812 18.375 -40.457031 17.09375 -40.5625 C 15.8125 -40.664062 14.769531 -40.71875 13.96875 -40.71875 L 9.25 -40.71875 L 9.25 -22.4375 L 12.5625 -22.4375 C 13.945312 -22.4375 15.421875 -22.460938 16.984375 -22.515625 C 18.546875 -22.566406 20.535156 -22.710938 22.953125 -22.953125 L 22.953125 -21.09375 C 20.535156 -21.363281 18.546875 -21.515625 16.984375 -21.546875 C 15.421875 -21.585938 13.945312 -21.609375 12.5625 -21.609375 L 9.25 -21.609375 L 9.25 -0.828125 L 15.0625 -0.828125 C 16.789062 -0.828125 18.378906 -0.867188 19.828125 -0.953125 C 21.285156 -1.046875 22.785156 -1.238281 24.328125 -1.53125 C 25.867188 -1.820312 27.609375 -2.242188 29.546875 -2.796875 L 28.046875 0 L 3.640625 0 C 3.773438 -1.457031 3.875 -2.710938 3.9375 -3.765625 C 4.007812 -4.816406 4.054688 -5.84375 4.078125 -6.84375 C 4.097656 -7.851562 4.109375 -8.984375 4.109375 -10.234375 L 4.109375 -31.3125 C 4.109375 -32.59375 4.097656 -33.726562 4.078125 -34.71875 C 4.054688 -35.707031 4.007812 -36.726562 3.9375 -37.78125 C 3.875 -38.84375 3.773438 -40.097656 3.640625 -41.546875 Z M 3.640625 -41.546875 "/></g></g></g><g fill="#ffffff" fill-opacity="1"><g transform="translate(141.139983, 273.218111)"><g><path d="M 3.734375 -41.546875 L 9.65625 -41.546875 C 9.550781 -40.097656 9.460938 -38.84375 9.390625 -37.78125 C 9.328125 -36.726562 9.285156 -35.707031 9.265625 -34.71875 C 9.253906 -33.726562 9.25 -32.59375 9.25 -31.3125 L 9.25 -0.828125 L 13.609375 -0.828125 C 15.335938 -0.828125 16.925781 -0.867188 18.375 -0.953125 C 19.832031 -1.046875 21.332031 -1.238281 22.875 -1.53125 C 24.414062 -1.820312 26.15625 -2.242188 28.09375 -2.796875 L 26.59375 0 L 3.640625 0 C 3.773438 -1.457031 3.875 -2.710938 3.9375 -3.765625 C 4.007812 -4.816406 4.0625 -5.84375 4.09375 -6.84375 C 4.132812 -7.851562 4.15625 -8.984375 4.15625 -10.234375 L 4.15625 -31.3125 C 4.15625 -32.59375 4.144531 -33.726562 4.125 -34.71875 C 4.113281 -35.707031 4.070312 -36.726562 4 -37.78125 C 3.925781 -38.84375 3.835938 -40.097656 3.734375 -41.546875 Z M 3.734375 -41.546875 "/></g></g></g><g fill="#ffffff" fill-opacity="1"><g transform="translate(171.315716, 273.218111)"><g><path d="M 30.484375 -36.71875 L 20.875 -17.921875 L 20.875 -10.234375 C 20.875 -8.984375 20.882812 -7.851562 20.90625 -6.84375 C 20.925781 -5.84375 20.960938 -4.816406 21.015625 -3.765625 C 21.066406 -2.710938 21.144531 -1.457031 21.25 0 L 15.328125 0 C 15.460938 -1.457031 15.554688 -2.710938 15.609375 -3.765625 C 15.660156 -4.816406 15.691406 -5.84375 15.703125 -6.84375 C 15.722656 -7.851562 15.734375 -8.984375 15.734375 -10.234375 L 15.734375 -17.921875 L 5.8125 -36.671875 C 5.289062 -37.671875 4.8125 -38.5 4.375 -39.15625 C 3.945312 -39.8125 3.351562 -40.609375 2.59375 -41.546875 L 9.40625 -41.546875 C 9.75 -40.546875 10.078125 -39.722656 10.390625 -39.078125 C 10.703125 -38.441406 11.117188 -37.640625 11.640625 -36.671875 L 20.71875 -19.53125 L 29.609375 -36.671875 C 30.128906 -37.671875 30.535156 -38.484375 30.828125 -39.109375 C 31.117188 -39.734375 31.472656 -40.546875 31.890625 -41.546875 L 33.296875 -41.546875 C 32.640625 -40.546875 32.128906 -39.722656 31.765625 -39.078125 C 31.398438 -38.441406 30.972656 -37.65625 30.484375 -36.71875 Z M 30.484375 -36.71875 "/></g></g></g><g fill="#ffffff" fill-opacity="1"><g transform="translate(207.20458, 273.218111)"><g/></g></g><g fill="#ffffff" fill-opacity="1"><g transform="translate(222.058713, 273.218111)"><g><path d="M 33.453125 -41.546875 L 31.15625 -38.640625 C 28.945312 -39.535156 26.890625 -40.101562 24.984375 -40.34375 C 23.078125 -40.59375 21.550781 -40.71875 20.40625 -40.71875 L 19.78125 -40.71875 L 19.78125 -10.234375 C 19.78125 -8.984375 19.796875 -7.851562 19.828125 -6.84375 C 19.867188 -5.84375 19.914062 -4.816406 19.96875 -3.765625 C 20.019531 -2.710938 20.097656 -1.457031 20.203125 0 L 14.28125 0 C 14.382812 -1.457031 14.460938 -2.710938 14.515625 -3.765625 C 14.566406 -4.816406 14.609375 -5.84375 14.640625 -6.84375 C 14.679688 -7.851562 14.703125 -8.984375 14.703125 -10.234375 L 14.703125 -40.71875 L 14.078125 -40.71875 C 12.929688 -40.71875 11.414062 -40.59375 9.53125 -40.34375 C 7.644531 -40.101562 5.578125 -39.535156 3.328125 -38.640625 L 1.03125 -41.546875 Z M 33.453125 -41.546875 "/></g></g></g><g fill="#ffffff" fill-opacity="1"><g transform="translate(256.545252, 273.218111)"><g><path d="M 27.6875 -9.875 C 28.582031 -7.550781 29.472656 -5.726562 30.359375 -4.40625 C 31.242188 -3.09375 32.253906 -2.160156 33.390625 -1.609375 C 34.535156 -1.054688 35.90625 -0.78125 37.5 -0.78125 L 37.5 0 C 34.65625 0 32.269531 -0.285156 30.34375 -0.859375 C 28.425781 -1.429688 26.851562 -2.410156 25.625 -3.796875 C 24.394531 -5.179688 23.347656 -7.082031 22.484375 -9.5 C 21.515625 -12.238281 20.484375 -14.300781 19.390625 -15.6875 C 18.304688 -17.070312 17.085938 -18.003906 15.734375 -18.484375 C 14.390625 -18.972656 12.816406 -19.21875 11.015625 -19.21875 L 9.140625 -19.21875 L 9.140625 -10.234375 C 9.140625 -8.984375 9.144531 -7.851562 9.15625 -6.84375 C 9.175781 -5.84375 9.222656 -4.816406 9.296875 -3.765625 C 9.367188 -2.710938 9.457031 -1.457031 9.5625 0 L 3.640625 0 C 3.742188 -1.457031 3.828125 -2.710938 3.890625 -3.765625 C 3.960938 -4.816406 4.003906 -5.84375 4.015625 -6.84375 C 4.035156 -7.851562 4.046875 -8.984375 4.046875 -10.234375 L 4.046875 -31.3125 C 4.046875 -32.59375 4.035156 -33.726562 4.015625 -34.71875 C 4.003906 -35.707031 3.960938 -36.726562 3.890625 -37.78125 C 3.828125 -38.84375 3.742188 -40.097656 3.640625 -41.546875 L 13.25 -41.546875 C 15.5625 -41.546875 17.753906 -41.378906 19.828125 -41.046875 C 21.910156 -40.722656 23.753906 -40.15625 25.359375 -39.34375 C 26.972656 -38.53125 28.238281 -37.394531 29.15625 -35.9375 C 30.082031 -34.488281 30.546875 -32.640625 30.546875 -30.390625 C 30.546875 -27.753906 29.9375 -25.664062 28.71875 -24.125 C 27.507812 -22.582031 25.875 -21.445312 23.8125 -20.71875 C 21.75 -19.988281 19.4375 -19.523438 16.875 -19.328125 C 19.125 -18.910156 21.175781 -18.007812 23.03125 -16.625 C 24.882812 -15.238281 26.4375 -12.988281 27.6875 -9.875 Z M 9.140625 -20.046875 L 13.1875 -20.046875 C 14.71875 -20.046875 16.195312 -20.203125 17.625 -20.515625 C 19.0625 -20.828125 20.351562 -21.363281 21.5 -22.125 C 22.644531 -22.882812 23.550781 -23.929688 24.21875 -25.265625 C 24.894531 -26.597656 25.234375 -28.304688 25.234375 -30.390625 C 25.234375 -32.460938 24.894531 -34.164062 24.21875 -35.5 C 23.550781 -36.832031 22.644531 -37.878906 21.5 -38.640625 C 20.351562 -39.398438 19.0625 -39.9375 17.625 -40.25 C 16.195312 -40.5625 14.71875 -40.71875 13.1875 -40.71875 L 9.140625 -40.71875 Z M 9.140625 -20.046875 "/></g></g></g><g fill="#ffffff" fill-opacity="1"><g transform="translate(295.965889, 273.218111)"><g><path d="M 3.640625 -41.546875 L 9.5625 -41.546875 C 9.457031 -40.097656 9.367188 -38.84375 9.296875 -37.78125 C 9.222656 -36.726562 9.175781 -35.707031 9.15625 -34.71875 C 9.144531 -33.726562 9.140625 -32.59375 9.140625 -31.3125 L 9.140625 -10.234375 C 9.140625 -8.984375 9.144531 -7.851562 9.15625 -6.84375 C 9.175781 -5.84375 9.222656 -4.816406 9.296875 -3.765625 C 9.367188 -2.710938 9.457031 -1.457031 9.5625 0 L 3.640625 0 C 3.742188 -1.457031 3.828125 -2.710938 3.890625 -3.765625 C 3.960938 -4.816406 4.003906 -5.84375 4.015625 -6.84375 C 4.035156 -7.851562 4.046875 -8.984375 4.046875 -10.234375 L 4.046875 -31.3125 C 4.046875 -32.59375 4.035156 -33.726562 4.015625 -34.71875 C 4.003906 -35.707031 3.960938 -36.726562 3.890625 -37.78125 C 3.828125 -38.84375 3.742188 -40.097656 3.640625 -41.546875 Z M 3.640625 -41.546875 "/></g></g></g><g fill="#ffffff" fill-opacity="1"><g transform="translate(309.158042, 273.218111)"><g><path d="M 3.640625 0 C 3.742188 -1.457031 3.828125 -2.710938 3.890625 -3.765625 C 3.960938 -4.816406 4.003906 -5.84375 4.015625 -6.84375 C 4.035156 -7.851562 4.046875 -8.984375 4.046875 -10.234375 L 4.046875 -31.3125 C 4.046875 -32.59375 4.035156 -33.726562 4.015625 -34.71875 C 4.003906 -35.707031 3.960938 -36.726562 3.890625 -37.78125 C 3.828125 -38.84375 3.742188 -40.097656 3.640625 -41.546875 L 9.34375 -41.546875 L 25.609375 -5.875 L 41.078125 -41.546875 L 46.4375 -41.546875 C 46.332031 -40.097656 46.242188 -38.84375 46.171875 -37.78125 C 46.097656 -36.726562 46.050781 -35.707031 46.03125 -34.71875 C 46.019531 -33.726562 46.015625 -32.59375 46.015625 -31.3125 L 46.015625 -10.234375 C 46.015625 -8.984375 46.019531 -7.851562 46.03125 -6.84375 C 46.050781 -5.84375 46.097656 -4.816406 46.171875 -3.765625 C 46.242188 -2.710938 46.332031 -1.457031 46.4375 0 L 40.515625 0 C 40.617188 -1.457031 40.695312 -2.710938 40.75 -3.765625 C 40.800781 -4.816406 40.832031 -5.84375 40.84375 -6.84375 C 40.863281 -7.851562 40.875 -8.984375 40.875 -10.234375 L 40.875 -39.0625 L 23.78125 1.03125 L 22.859375 1.03125 L 4.875 -38.90625 L 4.875 -10.234375 C 4.875 -8.984375 4.882812 -7.851562 4.90625 -6.84375 C 4.925781 -5.84375 4.96875 -4.816406 5.03125 -3.765625 C 5.101562 -2.710938 5.191406 -1.457031 5.296875 0 Z M 3.640625 0 "/></g></g></g><g fill="#ffffff" fill-opacity="1"><g transform="translate(359.228137, 273.218111)"><g/></g></g><g fill="#fb9400" fill-opacity="1"><g transform="translate(63.74612, 308.034739)"><g><path d="M 12.5625 -17.1875 L 11.78125 -16.3125 C 10.863281 -16.5625 9.992188 -16.726562 9.171875 -16.8125 C 8.359375 -16.894531 7.742188 -16.9375 7.328125 -16.9375 L 7.109375 -16.9375 L 7.109375 -4.046875 C 7.109375 -3.597656 7.113281 -3.1875 7.125 -2.8125 C 7.132812 -2.4375 7.144531 -2.035156 7.15625 -1.609375 C 7.164062 -1.179688 7.191406 -0.644531 7.234375 0 L 5.765625 0 C 5.804688 -0.644531 5.832031 -1.179688 5.84375 -1.609375 C 5.851562 -2.035156 5.863281 -2.4375 5.875 -2.8125 C 5.882812 -3.1875 5.890625 -3.597656 5.890625 -4.046875 L 5.890625 -16.9375 L 5.65625 -16.9375 C 5.25 -16.9375 4.632812 -16.894531 3.8125 -16.8125 C 3 -16.726562 2.128906 -16.5625 1.203125 -16.3125 L 0.4375 -17.1875 Z M 12.5625 -17.1875 "/></g></g></g><g fill="#fb9400" fill-opacity="1"><g transform="translate(82.334034, 308.034739)"><g><path d="M 12.46875 -13.171875 L 12.46875 -4.046875 C 12.46875 -3.597656 12.46875 -3.1875 12.46875 -2.8125 C 12.46875 -2.4375 12.476562 -2.035156 12.5 -1.609375 C 12.519531 -1.179688 12.550781 -0.644531 12.59375 0 L 11.09375 0 C 11.132812 -0.644531 11.164062 -1.179688 11.1875 -1.609375 C 11.207031 -2.035156 11.21875 -2.4375 11.21875 -2.8125 C 11.226562 -3.1875 11.234375 -3.597656 11.234375 -4.046875 L 11.234375 -8.46875 L 2.859375 -8.46875 L 2.859375 -4.046875 C 2.859375 -3.597656 2.859375 -3.1875 2.859375 -2.8125 C 2.867188 -2.4375 2.882812 -2.035156 2.90625 -1.609375 C 2.925781 -1.179688 2.953125 -0.644531 2.984375 0 L 1.5 0 C 1.539062 -0.644531 1.566406 -1.179688 1.578125 -1.609375 C 1.597656 -2.035156 1.613281 -2.4375 1.625 -2.8125 C 1.632812 -3.1875 1.640625 -3.597656 1.640625 -4.046875 L 1.640625 -13.171875 C 1.640625 -13.617188 1.632812 -14.023438 1.625 -14.390625 C 1.613281 -14.753906 1.597656 -15.15625 1.578125 -15.59375 C 1.566406 -16.03125 1.539062 -16.5625 1.5 -17.1875 L 2.984375 -17.1875 C 2.953125 -16.5625 2.925781 -16.03125 2.90625 -15.59375 C 2.882812 -15.15625 2.867188 -14.753906 2.859375 -14.390625 C 2.859375 -14.023438 2.859375 -13.617188 2.859375 -13.171875 L 2.859375 -8.71875 L 11.234375 -8.71875 L 11.234375 -13.171875 C 11.234375 -13.617188 11.226562 -14.023438 11.21875 -14.390625 C 11.21875 -14.753906 11.207031 -15.15625 11.1875 -15.59375 C 11.164062 -16.03125 11.132812 -16.5625 11.09375 -17.1875 L 12.59375 -17.1875 C 12.550781 -16.5625 12.519531 -16.03125 12.5 -15.59375 C 12.476562 -15.15625 12.46875 -14.753906 12.46875 -14.390625 C 12.46875 -14.023438 12.46875 -13.617188 12.46875 -13.171875 Z M 12.46875 -13.171875 "/></g></g></g><g fill="#fb9400" fill-opacity="1"><g transform="translate(102.01776, 308.034739)"><g><path d="M 1.5 -17.1875 L 10.71875 -17.1875 L 9.953125 -16.3125 C 9.335938 -16.476562 8.691406 -16.601562 8.015625 -16.6875 C 7.335938 -16.78125 6.722656 -16.84375 6.171875 -16.875 C 5.617188 -16.914062 5.203125 -16.9375 4.921875 -16.9375 L 2.90625 -16.9375 L 2.90625 -9.28125 L 4.421875 -9.28125 C 4.992188 -9.28125 5.601562 -9.289062 6.25 -9.3125 C 6.894531 -9.332031 7.71875 -9.394531 8.71875 -9.5 L 8.71875 -8.8125 C 7.71875 -8.925781 6.894531 -8.988281 6.25 -9 C 5.601562 -9.019531 4.992188 -9.03125 4.421875 -9.03125 L 2.90625 -9.03125 L 2.90625 -0.28125 L 5.609375 -0.28125 C 6.640625 -0.28125 7.59375 -0.316406 8.46875 -0.390625 C 9.351562 -0.460938 10.316406 -0.625 11.359375 -0.875 L 10.875 0 L 1.5 0 C 1.5625 -0.644531 1.601562 -1.179688 1.625 -1.609375 C 1.644531 -2.035156 1.65625 -2.4375 1.65625 -2.8125 C 1.664062 -3.1875 1.671875 -3.597656 1.671875 -4.046875 L 1.671875 -13.171875 C 1.671875 -13.617188 1.664062 -14.023438 1.65625 -14.390625 C 1.65625 -14.753906 1.644531 -15.15625 1.625 -15.59375 C 1.601562 -16.03125 1.5625 -16.5625 1.5 -17.1875 Z M 1.5 -17.1875 "/></g></g></g><g fill="#fb9400" fill-opacity="1"><g transform="translate(119.6173, 308.034739)"><g/></g></g><g fill="#fb9400" fill-opacity="1"><g transform="translate(131.28661, 308.034739)"><g><path d="M 7.203125 -9.8125 C 8.003906 -9.675781 8.769531 -9.414062 9.5 -9.03125 C 10.226562 -8.65625 10.828125 -8.125 11.296875 -7.4375 C 11.773438 -6.75 12.015625 -5.867188 12.015625 -4.796875 C 12.015625 -3.878906 11.832031 -3.109375 11.46875 -2.484375 C 11.101562 -1.859375 10.609375 -1.363281 9.984375 -1 C 9.367188 -0.644531 8.664062 -0.390625 7.875 -0.234375 C 7.09375 -0.078125 6.273438 0 5.421875 0 L 1.5 0 C 1.539062 -0.644531 1.566406 -1.179688 1.578125 -1.609375 C 1.597656 -2.035156 1.613281 -2.4375 1.625 -2.8125 C 1.632812 -3.1875 1.640625 -3.597656 1.640625 -4.046875 L 1.640625 -13.171875 C 1.640625 -13.617188 1.632812 -14.023438 1.625 -14.390625 C 1.613281 -14.753906 1.597656 -15.15625 1.578125 -15.59375 C 1.566406 -16.03125 1.539062 -16.5625 1.5 -17.1875 L 5.15625 -17.1875 C 5.800781 -17.1875 6.457031 -17.144531 7.125 -17.0625 C 7.800781 -16.976562 8.421875 -16.804688 8.984375 -16.546875 C 9.554688 -16.285156 10.015625 -15.90625 10.359375 -15.40625 C 10.710938 -14.90625 10.890625 -14.238281 10.890625 -13.40625 C 10.890625 -12.414062 10.601562 -11.613281 10.03125 -11 C 9.457031 -10.394531 8.515625 -10 7.203125 -9.8125 Z M 2.859375 -16.9375 L 2.859375 -9.96875 L 5.15625 -9.96875 C 6.769531 -9.96875 7.910156 -10.269531 8.578125 -10.875 C 9.242188 -11.488281 9.578125 -12.332031 9.578125 -13.40625 C 9.578125 -14.15625 9.421875 -14.757812 9.109375 -15.21875 C 8.796875 -15.6875 8.394531 -16.039062 7.90625 -16.28125 C 7.414062 -16.53125 6.898438 -16.703125 6.359375 -16.796875 C 5.816406 -16.890625 5.316406 -16.9375 4.859375 -16.9375 Z M 5.078125 -0.28125 C 6.046875 -0.28125 6.953125 -0.429688 7.796875 -0.734375 C 8.640625 -1.035156 9.320312 -1.519531 9.84375 -2.1875 C 10.375 -2.851562 10.640625 -3.734375 10.640625 -4.828125 C 10.640625 -5.816406 10.453125 -6.625 10.078125 -7.25 C 9.703125 -7.882812 9.234375 -8.378906 8.671875 -8.734375 C 8.109375 -9.097656 7.523438 -9.347656 6.921875 -9.484375 C 6.328125 -9.617188 5.8125 -9.6875 5.375 -9.6875 L 2.859375 -9.6875 L 2.859375 -0.28125 Z M 5.078125 -0.28125 "/></g></g></g><g fill="#fb9400" fill-opacity="1"><g transform="translate(149.960482, 308.034739)"><g><path d="M 11.625 -2.15625 C 11.738281 -1.707031 11.851562 -1.335938 11.96875 -1.046875 C 12.082031 -0.765625 12.238281 -0.414062 12.4375 0 L 10.765625 0 C 10.734375 -0.457031 10.679688 -0.816406 10.609375 -1.078125 C 10.535156 -1.347656 10.441406 -1.707031 10.328125 -2.15625 L 9.125 -6.34375 L 3.3125 -6.34375 L 2.078125 -2.078125 C 1.960938 -1.679688 1.859375 -1.347656 1.765625 -1.078125 C 1.679688 -0.804688 1.625 -0.445312 1.59375 0 L 1.078125 0 C 1.285156 -0.445312 1.429688 -0.800781 1.515625 -1.0625 C 1.597656 -1.332031 1.695312 -1.664062 1.8125 -2.0625 L 5.890625 -16.25 C 5.960938 -16.539062 5.941406 -16.851562 5.828125 -17.1875 L 7.328125 -17.1875 Z M 3.375 -6.59375 L 9.0625 -6.59375 L 6.234375 -16.484375 Z M 3.375 -6.59375 "/></g></g></g><g fill="#fb9400" fill-opacity="1"><g transform="translate(169.064078, 308.034739)"><g><path d="M 10.140625 -4.140625 C 10.523438 -3.128906 10.90625 -2.335938 11.28125 -1.765625 C 11.65625 -1.203125 12.082031 -0.8125 12.5625 -0.59375 C 13.039062 -0.375 13.625 -0.265625 14.3125 -0.265625 L 14.3125 0 C 13.25 0 12.382812 -0.132812 11.71875 -0.40625 C 11.050781 -0.675781 10.503906 -1.101562 10.078125 -1.6875 C 9.660156 -2.269531 9.28125 -3.03125 8.9375 -3.96875 C 8.539062 -5.070312 8.085938 -5.910156 7.578125 -6.484375 C 7.078125 -7.054688 6.515625 -7.441406 5.890625 -7.640625 C 5.273438 -7.847656 4.578125 -7.953125 3.796875 -7.953125 L 2.859375 -7.953125 L 2.859375 -4.046875 C 2.859375 -3.597656 2.859375 -3.1875 2.859375 -2.8125 C 2.867188 -2.4375 2.882812 -2.035156 2.90625 -1.609375 C 2.925781 -1.179688 2.953125 -0.644531 2.984375 0 L 1.5 0 C 1.539062 -0.644531 1.566406 -1.179688 1.578125 -1.609375 C 1.597656 -2.035156 1.613281 -2.4375 1.625 -2.8125 C 1.632812 -3.1875 1.640625 -3.597656 1.640625 -4.046875 L 1.640625 -13.171875 C 1.640625 -13.617188 1.632812 -14.023438 1.625 -14.390625 C 1.613281 -14.753906 1.597656 -15.15625 1.578125 -15.59375 C 1.566406 -16.03125 1.539062 -16.5625 1.5 -17.1875 L 4.6875 -17.1875 C 5.601562 -17.1875 6.46875 -17.117188 7.28125 -16.984375 C 8.101562 -16.847656 8.828125 -16.609375 9.453125 -16.265625 C 10.085938 -15.921875 10.582031 -15.453125 10.9375 -14.859375 C 11.289062 -14.265625 11.46875 -13.5 11.46875 -12.5625 C 11.46875 -11.488281 11.222656 -10.632812 10.734375 -10 C 10.253906 -9.363281 9.601562 -8.890625 8.78125 -8.578125 C 7.96875 -8.273438 7.050781 -8.082031 6.03125 -8 C 6.882812 -7.820312 7.664062 -7.445312 8.375 -6.875 C 9.082031 -6.3125 9.671875 -5.398438 10.140625 -4.140625 Z M 2.859375 -8.234375 L 4.6875 -8.234375 C 5.375 -8.234375 6.039062 -8.296875 6.6875 -8.421875 C 7.34375 -8.546875 7.929688 -8.769531 8.453125 -9.09375 C 8.972656 -9.414062 9.382812 -9.859375 9.6875 -10.421875 C 10 -10.984375 10.15625 -11.695312 10.15625 -12.5625 C 10.15625 -13.4375 10 -14.15625 9.6875 -14.71875 C 9.382812 -15.289062 8.972656 -15.738281 8.453125 -16.0625 C 7.929688 -16.382812 7.34375 -16.609375 6.6875 -16.734375 C 6.039062 -16.867188 5.375 -16.9375 4.6875 -16.9375 L 2.859375 -16.9375 Z M 2.859375 -8.234375 "/></g></g></g><g fill="#fb9400" fill-opacity="1"><g transform="translate(189.779147, 308.034739)"><g><path d="M 7.203125 -9.8125 C 8.003906 -9.675781 8.769531 -9.414062 9.5 -9.03125 C 10.226562 -8.65625 10.828125 -8.125 11.296875 -7.4375 C 11.773438 -6.75 12.015625 -5.867188 12.015625 -4.796875 C 12.015625 -3.878906 11.832031 -3.109375 11.46875 -2.484375 C 11.101562 -1.859375 10.609375 -1.363281 9.984375 -1 C 9.367188 -0.644531 8.664062 -0.390625 7.875 -0.234375 C 7.09375 -0.078125 6.273438 0 5.421875 0 L 1.5 0 C 1.539062 -0.644531 1.566406 -1.179688 1.578125 -1.609375 C 1.597656 -2.035156 1.613281 -2.4375 1.625 -2.8125 C 1.632812 -3.1875 1.640625 -3.597656 1.640625 -4.046875 L 1.640625 -13.171875 C 1.640625 -13.617188 1.632812 -14.023438 1.625 -14.390625 C 1.613281 -14.753906 1.597656 -15.15625 1.578125 -15.59375 C 1.566406 -16.03125 1.539062 -16.5625 1.5 -17.1875 L 5.15625 -17.1875 C 5.800781 -17.1875 6.457031 -17.144531 7.125 -17.0625 C 7.800781 -16.976562 8.421875 -16.804688 8.984375 -16.546875 C 9.554688 -16.285156 10.015625 -15.90625 10.359375 -15.40625 C 10.710938 -14.90625 10.890625 -14.238281 10.890625 -13.40625 C 10.890625 -12.414062 10.601562 -11.613281 10.03125 -11 C 9.457031 -10.394531 8.515625 -10 7.203125 -9.8125 Z M 2.859375 -16.9375 L 2.859375 -9.96875 L 5.15625 -9.96875 C 6.769531 -9.96875 7.910156 -10.269531 8.578125 -10.875 C 9.242188 -11.488281 9.578125 -12.332031 9.578125 -13.40625 C 9.578125 -14.15625 9.421875 -14.757812 9.109375 -15.21875 C 8.796875 -15.6875 8.394531 -16.039062 7.90625 -16.28125 C 7.414062 -16.53125 6.898438 -16.703125 6.359375 -16.796875 C 5.816406 -16.890625 5.316406 -16.9375 4.859375 -16.9375 Z M 5.078125 -0.28125 C 6.046875 -0.28125 6.953125 -0.429688 7.796875 -0.734375 C 8.640625 -1.035156 9.320312 -1.519531 9.84375 -2.1875 C 10.375 -2.851562 10.640625 -3.734375 10.640625 -4.828125 C 10.640625 -5.816406 10.453125 -6.625 10.078125 -7.25 C 9.703125 -7.882812 9.234375 -8.378906 8.671875 -8.734375 C 8.109375 -9.097656 7.523438 -9.347656 6.921875 -9.484375 C 6.328125 -9.617188 5.8125 -9.6875 5.375 -9.6875 L 2.859375 -9.6875 L 2.859375 -0.28125 Z M 5.078125 -0.28125 "/></g></g></g><g fill="#fb9400" fill-opacity="1"><g transform="translate(208.453019, 308.034739)"><g><path d="M 1.5 -17.1875 L 10.71875 -17.1875 L 9.953125 -16.3125 C 9.335938 -16.476562 8.691406 -16.601562 8.015625 -16.6875 C 7.335938 -16.78125 6.722656 -16.84375 6.171875 -16.875 C 5.617188 -16.914062 5.203125 -16.9375 4.921875 -16.9375 L 2.90625 -16.9375 L 2.90625 -9.28125 L 4.421875 -9.28125 C 4.992188 -9.28125 5.601562 -9.289062 6.25 -9.3125 C 6.894531 -9.332031 7.71875 -9.394531 8.71875 -9.5 L 8.71875 -8.8125 C 7.71875 -8.925781 6.894531 -8.988281 6.25 -9 C 5.601562 -9.019531 4.992188 -9.03125 4.421875 -9.03125 L 2.90625 -9.03125 L 2.90625 -0.28125 L 5.609375 -0.28125 C 6.640625 -0.28125 7.59375 -0.316406 8.46875 -0.390625 C 9.351562 -0.460938 10.316406 -0.625 11.359375 -0.875 L 10.875 0 L 1.5 0 C 1.5625 -0.644531 1.601562 -1.179688 1.625 -1.609375 C 1.644531 -2.035156 1.65625 -2.4375 1.65625 -2.8125 C 1.664062 -3.1875 1.671875 -3.597656 1.671875 -4.046875 L 1.671875 -13.171875 C 1.671875 -13.617188 1.664062 -14.023438 1.65625 -14.390625 C 1.65625 -14.753906 1.644531 -15.15625 1.625 -15.59375 C 1.601562 -16.03125 1.5625 -16.5625 1.5 -17.1875 Z M 1.5 -17.1875 "/></g></g></g><g fill="#fb9400" fill-opacity="1"><g transform="translate(226.052554, 308.034739)"><g><path d="M 10.140625 -4.140625 C 10.523438 -3.128906 10.90625 -2.335938 11.28125 -1.765625 C 11.65625 -1.203125 12.082031 -0.8125 12.5625 -0.59375 C 13.039062 -0.375 13.625 -0.265625 14.3125 -0.265625 L 14.3125 0 C 13.25 0 12.382812 -0.132812 11.71875 -0.40625 C 11.050781 -0.675781 10.503906 -1.101562 10.078125 -1.6875 C 9.660156 -2.269531 9.28125 -3.03125 8.9375 -3.96875 C 8.539062 -5.070312 8.085938 -5.910156 7.578125 -6.484375 C 7.078125 -7.054688 6.515625 -7.441406 5.890625 -7.640625 C 5.273438 -7.847656 4.578125 -7.953125 3.796875 -7.953125 L 2.859375 -7.953125 L 2.859375 -4.046875 C 2.859375 -3.597656 2.859375 -3.1875 2.859375 -2.8125 C 2.867188 -2.4375 2.882812 -2.035156 2.90625 -1.609375 C 2.925781 -1.179688 2.953125 -0.644531 2.984375 0 L 1.5 0 C 1.539062 -0.644531 1.566406 -1.179688 1.578125 -1.609375 C 1.597656 -2.035156 1.613281 -2.4375 1.625 -2.8125 C 1.632812 -3.1875 1.640625 -3.597656 1.640625 -4.046875 L 1.640625 -13.171875 C 1.640625 -13.617188 1.632812 -14.023438 1.625 -14.390625 C 1.613281 -14.753906 1.597656 -15.15625 1.578125 -15.59375 C 1.566406 -16.03125 1.539062 -16.5625 1.5 -17.1875 L 4.6875 -17.1875 C 5.601562 -17.1875 6.46875 -17.117188 7.28125 -16.984375 C 8.101562 -16.847656 8.828125 -16.609375 9.453125 -16.265625 C 10.085938 -15.921875 10.582031 -15.453125 10.9375 -14.859375 C 11.289062 -14.265625 11.46875 -13.5 11.46875 -12.5625 C 11.46875 -11.488281 11.222656 -10.632812 10.734375 -10 C 10.253906 -9.363281 9.601562 -8.890625 8.78125 -8.578125 C 7.96875 -8.273438 7.050781 -8.082031 6.03125 -8 C 6.882812 -7.820312 7.664062 -7.445312 8.375 -6.875 C 9.082031 -6.3125 9.671875 -5.398438 10.140625 -4.140625 Z M 2.859375 -8.234375 L 4.6875 -8.234375 C 5.375 -8.234375 6.039062 -8.296875 6.6875 -8.421875 C 7.34375 -8.546875 7.929688 -8.769531 8.453125 -9.09375 C 8.972656 -9.414062 9.382812 -9.859375 9.6875 -10.421875 C 10 -10.984375 10.15625 -11.695312 10.15625 -12.5625 C 10.15625 -13.4375 10 -14.15625 9.6875 -14.71875 C 9.382812 -15.289062 8.972656 -15.738281 8.453125 -16.0625 C 7.929688 -16.382812 7.34375 -16.609375 6.6875 -16.734375 C 6.039062 -16.867188 5.375 -16.9375 4.6875 -16.9375 L 2.859375 -16.9375 Z M 2.859375 -8.234375 "/></g></g></g><g fill="#fb9400" fill-opacity="1"><g transform="translate(246.767623, 308.034739)"><g/></g></g><g fill="#fb9400" fill-opacity="1"><g transform="translate(258.436934, 308.034739)"><g><path d="M 12.46875 -13.171875 L 12.46875 -4.046875 C 12.46875 -3.597656 12.46875 -3.1875 12.46875 -2.8125 C 12.46875 -2.4375 12.476562 -2.035156 12.5 -1.609375 C 12.519531 -1.179688 12.550781 -0.644531 12.59375 0 L 11.09375 0 C 11.132812 -0.644531 11.164062 -1.179688 11.1875 -1.609375 C 11.207031 -2.035156 11.21875 -2.4375 11.21875 -2.8125 C 11.226562 -3.1875 11.234375 -3.597656 11.234375 -4.046875 L 11.234375 -8.46875 L 2.859375 -8.46875 L 2.859375 -4.046875 C 2.859375 -3.597656 2.859375 -3.1875 2.859375 -2.8125 C 2.867188 -2.4375 2.882812 -2.035156 2.90625 -1.609375 C 2.925781 -1.179688 2.953125 -0.644531 2.984375 0 L 1.5 0 C 1.539062 -0.644531 1.566406 -1.179688 1.578125 -1.609375 C 1.597656 -2.035156 1.613281 -2.4375 1.625 -2.8125 C 1.632812 -3.1875 1.640625 -3.597656 1.640625 -4.046875 L 1.640625 -13.171875 C 1.640625 -13.617188 1.632812 -14.023438 1.625 -14.390625 C 1.613281 -14.753906 1.597656 -15.15625 1.578125 -15.59375 C 1.566406 -16.03125 1.539062 -16.5625 1.5 -17.1875 L 2.984375 -17.1875 C 2.953125 -16.5625 2.925781 -16.03125 2.90625 -15.59375 C 2.882812 -15.15625 2.867188 -14.753906 2.859375 -14.390625 C 2.859375 -14.023438 2.859375 -13.617188 2.859375 -13.171875 L 2.859375 -8.71875 L 11.234375 -8.71875 L 11.234375 -13.171875 C 11.234375 -13.617188 11.226562 -14.023438 11.21875 -14.390625 C 11.21875 -14.753906 11.207031 -15.15625 11.1875 -15.59375 C 11.164062 -16.03125 11.132812 -16.5625 11.09375 -17.1875 L 12.59375 -17.1875 C 12.550781 -16.5625 12.519531 -16.03125 12.5 -15.59375 C 12.476562 -15.15625 12.46875 -14.753906 12.46875 -14.390625 C 12.46875 -14.023438 12.46875 -13.617188 12.46875 -13.171875 Z M 12.46875 -13.171875 "/></g></g></g><g fill="#fb9400" fill-opacity="1"><g transform="translate(278.120662, 308.034739)"><g><path d="M 1.296875 -17.1875 L 2.765625 -17.1875 C 2.742188 -16.5625 2.722656 -16.03125 2.703125 -15.59375 C 2.679688 -15.15625 2.664062 -14.753906 2.65625 -14.390625 C 2.644531 -14.023438 2.640625 -13.617188 2.640625 -13.171875 L 2.640625 -7.3125 C 2.640625 -4.71875 3.035156 -2.847656 3.828125 -1.703125 C 4.628906 -0.554688 5.875 0.015625 7.5625 0.015625 C 8.695312 0.015625 9.640625 -0.21875 10.390625 -0.6875 C 11.148438 -1.15625 11.726562 -1.921875 12.125 -2.984375 C 12.519531 -4.054688 12.71875 -5.5 12.71875 -7.3125 L 12.71875 -13.171875 C 12.71875 -13.617188 12.71875 -14.023438 12.71875 -14.390625 C 12.71875 -14.753906 12.707031 -15.15625 12.6875 -15.59375 C 12.664062 -16.03125 12.632812 -16.5625 12.59375 -17.1875 L 13.125 -17.1875 C 13.082031 -16.5625 13.050781 -16.03125 13.03125 -15.59375 C 13.007812 -15.15625 13 -14.753906 13 -14.390625 C 13 -14.023438 13 -13.617188 13 -13.171875 L 13 -7.3125 C 13 -5.425781 12.785156 -3.914062 12.359375 -2.78125 C 11.941406 -1.65625 11.316406 -0.835938 10.484375 -0.328125 C 9.648438 0.179688 8.617188 0.4375 7.390625 0.4375 C 6.441406 0.4375 5.597656 0.3125 4.859375 0.0625 C 4.128906 -0.175781 3.503906 -0.582031 2.984375 -1.15625 C 2.472656 -1.726562 2.082031 -2.515625 1.8125 -3.515625 C 1.550781 -4.523438 1.421875 -5.789062 1.421875 -7.3125 L 1.421875 -13.171875 C 1.421875 -13.617188 1.414062 -14.023438 1.40625 -14.390625 C 1.394531 -14.753906 1.382812 -15.15625 1.375 -15.59375 C 1.363281 -16.03125 1.335938 -16.5625 1.296875 -17.1875 Z M 1.296875 -17.1875 "/></g></g></g><g fill="#fb9400" fill-opacity="1"><g transform="translate(298.126674, 308.034739)"><g><path d="M 7.203125 -9.8125 C 8.003906 -9.675781 8.769531 -9.414062 9.5 -9.03125 C 10.226562 -8.65625 10.828125 -8.125 11.296875 -7.4375 C 11.773438 -6.75 12.015625 -5.867188 12.015625 -4.796875 C 12.015625 -3.878906 11.832031 -3.109375 11.46875 -2.484375 C 11.101562 -1.859375 10.609375 -1.363281 9.984375 -1 C 9.367188 -0.644531 8.664062 -0.390625 7.875 -0.234375 C 7.09375 -0.078125 6.273438 0 5.421875 0 L 1.5 0 C 1.539062 -0.644531 1.566406 -1.179688 1.578125 -1.609375 C 1.597656 -2.035156 1.613281 -2.4375 1.625 -2.8125 C 1.632812 -3.1875 1.640625 -3.597656 1.640625 -4.046875 L 1.640625 -13.171875 C 1.640625 -13.617188 1.632812 -14.023438 1.625 -14.390625 C 1.613281 -14.753906 1.597656 -15.15625 1.578125 -15.59375 C 1.566406 -16.03125 1.539062 -16.5625 1.5 -17.1875 L 5.15625 -17.1875 C 5.800781 -17.1875 6.457031 -17.144531 7.125 -17.0625 C 7.800781 -16.976562 8.421875 -16.804688 8.984375 -16.546875 C 9.554688 -16.285156 10.015625 -15.90625 10.359375 -15.40625 C 10.710938 -14.90625 10.890625 -14.238281 10.890625 -13.40625 C 10.890625 -12.414062 10.601562 -11.613281 10.03125 -11 C 9.457031 -10.394531 8.515625 -10 7.203125 -9.8125 Z M 2.859375 -16.9375 L 2.859375 -9.96875 L 5.15625 -9.96875 C 6.769531 -9.96875 7.910156 -10.269531 8.578125 -10.875 C 9.242188 -11.488281 9.578125 -12.332031 9.578125 -13.40625 C 9.578125 -14.15625 9.421875 -14.757812 9.109375 -15.21875 C 8.796875 -15.6875 8.394531 -16.039062 7.90625 -16.28125 C 7.414062 -16.53125 6.898438 -16.703125 6.359375 -16.796875 C 5.816406 -16.890625 5.316406 -16.9375 4.859375 -16.9375 Z M 5.078125 -0.28125 C 6.046875 -0.28125 6.953125 -0.429688 7.796875 -0.734375 C 8.640625 -1.035156 9.320312 -1.519531 9.84375 -2.1875 C 10.375 -2.851562 10.640625 -3.734375 10.640625 -4.828125 C 10.640625 -5.816406 10.453125 -6.625 10.078125 -7.25 C 9.703125 -7.882812 9.234375 -8.378906 8.671875 -8.734375 C 8.109375 -9.097656 7.523438 -9.347656 6.921875 -9.484375 C 6.328125 -9.617188 5.8125 -9.6875 5.375 -9.6875 L 2.859375 -9.6875 L 2.859375 -0.28125 Z M 5.078125 -0.28125 "/></g></g></g></svg>