<svg xmlns="http://www.w3.org/2000/svg" xmlns:xlink="http://www.w3.org/1999/xlink" width="500" zoomAndPan="magnify" viewBox="0 0 375 374.999991" height="500" preserveAspectRatio="xMidYMid meet" version="1.0"><defs><filter x="0%" y="0%" width="100%" height="100%" id="17ecd67967"><feColorMatrix values="0 0 0 0 1 0 0 0 0 1 0 0 0 0 1 0 0 0 1 0" color-interpolation-filters="sRGB"/></filter><g/><mask id="57c897b3ef"><g filter="url(#17ecd67967)"><rect x="-37.5" width="450" fill="#000000" y="-37.499999" height="449.999989" fill-opacity="0.12"/></g></mask><clipPath id="42ed8b1ca2"><path d="M 0 58 L 4.917969 58 L 4.917969 61 L 0 61 Z M 0 58 " clip-rule="nonzero"/></clipPath><clipPath id="df50adab8a"><rect x="0" width="6" y="0" height="65"/></clipPath><clipPath id="b8fa47d58b"><path d="M 30 93 L 59 93 L 59 115 L 30 115 Z M 30 93 " clip-rule="nonzero"/></clipPath><clipPath id="0b19f9a215"><path d="M 15.332031 118.023438 L 33.78125 88.871094 L 62.933594 107.320312 L 44.488281 136.472656 Z M 15.332031 118.023438 " clip-rule="nonzero"/></clipPath><clipPath id="b8ec89b873"><path d="M -67.175781 248.398438 L 127.34375 -58.972656 L 434.714844 135.546875 L 240.195312 442.917969 Z M -67.175781 248.398438 " clip-rule="nonzero"/></clipPath><clipPath id="9ecfd710cb"><path d="M 93 28 L 114 28 L 114 58 L 93 58 Z M 93 28 " clip-rule="nonzero"/></clipPath><clipPath id="b63b1b34c1"><path d="M 71.308594 41.941406 L 101.34375 24.964844 L 118.316406 55.003906 L 88.28125 71.976562 Z M 71.308594 41.941406 " clip-rule="nonzero"/></clipPath><clipPath id="a60716c4fe"><path d="M -63.019531 117.847656 L 253.664062 -61.109375 L 432.625 255.570312 L 115.941406 434.53125 Z M -63.019531 117.847656 " clip-rule="nonzero"/></clipPath><clipPath id="d1ddbe1abb"><path d="M 260 29 L 280 29 L 280 58 L 260 58 Z M 260 29 " clip-rule="nonzero"/></clipPath><clipPath id="b97c29114f"><path d="M 285.851562 72.046875 L 255.78125 55.136719 L 272.691406 25.066406 L 302.765625 41.976562 Z M 285.851562 72.046875 " clip-rule="nonzero"/></clipPath><clipPath id="f5b43c0e02"><path d="M 420.335938 147.679688 L 103.285156 -30.628906 L 281.59375 -347.675781 L 598.644531 -169.367188 Z M 420.335938 147.679688 " clip-rule="nonzero"/></clipPath><clipPath id="9e126d0f3f"><path d="M 315 93 L 344 93 L 344 116 L 315 116 Z M 315 93 " clip-rule="nonzero"/></clipPath><clipPath id="345e7519b4"><path d="M 331.398438 137.039062 L 311.347656 108.964844 L 339.421875 88.914062 L 359.472656 116.988281 Z M 331.398438 137.039062 " clip-rule="nonzero"/></clipPath><clipPath id="8e8c5cc0d8"><path d="M 449.214844 242.496094 L 237.804688 -53.507812 L -58.203125 157.90625 L 153.210938 453.910156 Z M 449.214844 242.496094 " clip-rule="nonzero"/></clipPath><clipPath id="a33720140d"><path d="M 316 260 L 345 260 L 345 282 L 316 282 Z M 316 260 " clip-rule="nonzero"/></clipPath><clipPath id="667752da9c"><path d="M 359.660156 256.96875 L 341.210938 286.121094 L 312.054688 267.671875 L 330.503906 238.519531 Z M 359.660156 256.96875 " clip-rule="nonzero"/></clipPath><clipPath id="0cc0bdd345"><path d="M 442.167969 126.59375 L 247.648438 433.964844 L -59.722656 239.445312 L 134.796875 -67.925781 Z M 442.167969 126.59375 " clip-rule="nonzero"/></clipPath><clipPath id="74b40a24ed"><path d="M 261 317 L 282 317 L 282 347 L 261 347 Z M 261 317 " clip-rule="nonzero"/></clipPath><clipPath id="1d084ce3e1"><path d="M 303.683594 333.050781 L 273.648438 350.027344 L 256.675781 319.988281 L 286.710938 303.015625 Z M 303.683594 333.050781 " clip-rule="nonzero"/></clipPath><clipPath id="b2d4768ba9"><path d="M 438.011719 257.144531 L 121.328125 436.101562 L -57.632812 119.421875 L 259.050781 -59.539062 Z M 438.011719 257.144531 " clip-rule="nonzero"/></clipPath><clipPath id="64260b310a"><path d="M 94 317 L 115 317 L 115 346 L 94 346 Z M 94 317 " clip-rule="nonzero"/></clipPath><clipPath id="80fef5c07e"><path d="M 89.140625 302.945312 L 119.210938 319.855469 L 102.300781 349.925781 L 72.226562 333.015625 Z M 89.140625 302.945312 " clip-rule="nonzero"/></clipPath><clipPath id="0ba87232db"><path d="M -45.34375 227.3125 L 271.707031 405.621094 L 93.398438 722.667969 L -223.652344 544.359375 Z M -45.34375 227.3125 " clip-rule="nonzero"/></clipPath><clipPath id="40aa31b5a6"><path d="M 31 259 L 60 259 L 60 282 L 31 282 Z M 31 259 " clip-rule="nonzero"/></clipPath><clipPath id="b1187cd1eb"><path d="M 43.59375 237.953125 L 63.644531 266.027344 L 35.570312 286.078125 L 15.519531 258.003906 Z M 43.59375 237.953125 " clip-rule="nonzero"/></clipPath><clipPath id="794fe79ebf"><path d="M -74.222656 132.496094 L 137.1875 428.5 L 433.195312 217.085938 L 221.78125 -78.917969 Z M -74.222656 132.496094 " clip-rule="nonzero"/></clipPath><clipPath id="5c7e990927"><path d="M 153 94 L 247.09375 94 L 247.09375 165 L 153 165 Z M 153 94 " clip-rule="nonzero"/></clipPath><clipPath id="f91768f2db"><path d="M 174 62.46875 L 190 62.46875 L 190 174 L 174 174 Z M 174 62.46875 " clip-rule="nonzero"/></clipPath><clipPath id="1f4c475348"><path d="M 175 200 L 188 200 L 188 215.46875 L 175 215.46875 Z M 175 200 " clip-rule="nonzero"/></clipPath></defs><g mask="url(#57c897b3ef)"><g transform="matrix(1, 0, 0, 1, 0, 26)"><g clip-path="url(#df50adab8a)"><g clip-path="url(#42ed8b1ca2)"><path fill="#000000" d="M -4.363281 60.855469 L 3.371094 60.855469 C 5.117188 60.855469 5.117188 58.152344 3.371094 58.152344 L -4.363281 58.152344 C -6.109375 58.152344 -6.109375 60.855469 -4.363281 60.855469 Z M -4.363281 60.855469 " fill-opacity="1" fill-rule="nonzero"/></g></g></g></g><path fill="#fb9400" d="M 34.082031 183.828125 L 10.683594 183.828125 C 5.328125 183.828125 5.328125 192.132812 10.683594 192.132812 L 34.082031 192.132812 C 39.441406 192.132812 39.441406 183.828125 34.082031 183.828125 Z M 34.082031 183.828125 " fill-opacity="1" fill-rule="nonzero"/><path fill="#fb9400" d="M 364.171875 183.828125 L 340.773438 183.828125 C 335.414062 183.828125 335.414062 192.132812 340.773438 192.132812 L 364.171875 192.132812 C 369.527344 192.132812 369.527344 183.828125 364.171875 183.828125 Z M 364.171875 183.828125 " fill-opacity="1" fill-rule="nonzero"/><g clip-path="url(#b8fa47d58b)"><g clip-path="url(#0b19f9a215)"><g clip-path="url(#b8ec89b873)"><path fill="#fb9400" d="M 56.652344 106.488281 L 36.878906 93.976562 C 32.351562 91.113281 27.910156 98.132812 32.4375 100.996094 L 52.207031 113.507812 C 56.734375 116.375 61.179688 109.355469 56.652344 106.488281 Z M 56.652344 106.488281 " fill-opacity="1" fill-rule="nonzero"/></g></g></g><path fill="#ffffff" d="M 182.382812 11.183594 L 182.382812 34.582031 C 182.382812 39.941406 190.6875 39.941406 190.6875 34.582031 L 190.6875 11.183594 C 190.6875 5.828125 182.382812 5.828125 182.382812 11.183594 Z M 182.382812 11.183594 " fill-opacity="1" fill-rule="nonzero"/><g clip-path="url(#9ecfd710cb)"><g clip-path="url(#b63b1b34c1)"><g clip-path="url(#a60716c4fe)"><path fill="#fb9400" d="M 113.171875 51.300781 L 101.660156 30.929688 C 99.023438 26.265625 91.792969 30.355469 94.425781 35.019531 L 105.9375 55.386719 C 108.574219 60.054688 115.808594 55.964844 113.171875 51.300781 Z M 113.171875 51.300781 " fill-opacity="1" fill-rule="nonzero"/></g></g></g><g clip-path="url(#d1ddbe1abb)"><g clip-path="url(#b97c29114f)"><g clip-path="url(#f5b43c0e02)"><path fill="#ffffff" d="M 272.191406 31.382812 L 260.722656 51.777344 C 258.09375 56.449219 265.335938 60.519531 267.960938 55.851562 L 279.433594 35.457031 C 282.058594 30.785156 274.816406 26.714844 272.191406 31.382812 Z M 272.191406 31.382812 " fill-opacity="1" fill-rule="nonzero"/></g></g></g><g clip-path="url(#9e126d0f3f)"><g clip-path="url(#345e7519b4)"><g clip-path="url(#8e8c5cc0d8)"><path fill="#fb9400" d="M 317.644531 107.738281 L 336.683594 94.140625 C 341.042969 91.023438 345.871094 97.785156 341.511719 100.898438 L 322.472656 114.5 C 318.113281 117.613281 313.28125 110.851562 317.644531 107.738281 Z M 317.644531 107.738281 " fill-opacity="1" fill-rule="nonzero"/></g></g></g><path fill="#fb9400" d="M 340.910156 191.164062 L 364.304688 191.164062 C 369.664062 191.164062 369.664062 182.859375 364.304688 182.859375 L 340.910156 182.859375 C 335.550781 182.859375 335.550781 191.164062 340.910156 191.164062 Z M 340.910156 191.164062 " fill-opacity="1" fill-rule="nonzero"/><path fill="#fb9400" d="M 10.820312 191.164062 L 34.21875 191.164062 C 39.578125 191.164062 39.578125 182.859375 34.21875 182.859375 L 10.820312 182.859375 C 5.464844 182.859375 5.464844 191.164062 10.820312 191.164062 Z M 10.820312 191.164062 " fill-opacity="1" fill-rule="nonzero"/><g clip-path="url(#a33720140d)"><g clip-path="url(#667752da9c)"><g clip-path="url(#0cc0bdd345)"><path fill="#fb9400" d="M 318.339844 268.503906 L 338.113281 281.015625 C 342.640625 283.878906 347.082031 276.859375 342.554688 273.996094 L 322.785156 261.484375 C 318.257812 258.617188 313.8125 265.636719 318.339844 268.503906 Z M 318.339844 268.503906 " fill-opacity="1" fill-rule="nonzero"/></g></g></g><path fill="#fb9400" d="M 192.609375 363.804688 L 192.609375 340.410156 C 192.609375 335.050781 184.300781 335.050781 184.300781 340.410156 L 184.300781 363.804688 C 184.300781 369.164062 192.609375 369.164062 192.609375 363.804688 Z M 192.609375 363.804688 " fill-opacity="1" fill-rule="nonzero"/><g clip-path="url(#74b40a24ed)"><g clip-path="url(#1d084ce3e1)"><g clip-path="url(#b2d4768ba9)"><path fill="#fb9400" d="M 261.820312 323.691406 L 273.332031 344.0625 C 275.96875 348.726562 283.199219 344.636719 280.566406 339.972656 L 269.054688 319.605469 C 266.417969 314.9375 259.183594 319.027344 261.820312 323.691406 Z M 261.820312 323.691406 " fill-opacity="1" fill-rule="nonzero"/></g></g></g><g clip-path="url(#64260b310a)"><g clip-path="url(#80fef5c07e)"><g clip-path="url(#0ba87232db)"><path fill="#fb9400" d="M 102.800781 343.609375 L 114.269531 323.214844 C 116.898438 318.542969 109.65625 314.472656 107.03125 319.140625 L 95.558594 339.535156 C 92.933594 344.207031 100.175781 348.277344 102.800781 343.609375 Z M 102.800781 343.609375 " fill-opacity="1" fill-rule="nonzero"/></g></g></g><g clip-path="url(#40aa31b5a6)"><g clip-path="url(#b1187cd1eb)"><g clip-path="url(#794fe79ebf)"><path fill="#fb9400" d="M 57.347656 267.253906 L 38.308594 280.851562 C 33.949219 283.964844 29.121094 277.207031 33.480469 274.09375 L 52.519531 260.492188 C 56.878906 257.378906 61.707031 264.140625 57.347656 267.253906 Z M 57.347656 267.253906 " fill-opacity="1" fill-rule="nonzero"/></g></g></g><path fill="#fb9400" d="M 178.109375 147.039062 C 177.941406 145.765625 178.839844 144.601562 180.113281 144.4375 C 181.382812 144.273438 182.550781 145.171875 182.714844 146.445312 C 182.878906 147.714844 181.976562 148.882812 180.707031 149.042969 C 179.429688 149.207031 178.269531 148.308594 178.109375 147.039062 " fill-opacity="1" fill-rule="nonzero"/><g clip-path="url(#5c7e990927)"><path fill="#fb9400" d="M 173.210938 145.105469 C 170.523438 146.984375 167.894531 148.601562 166.503906 149.433594 C 166.503906 149.433594 162.371094 153.121094 153.484375 152.757812 L 157.871094 158.902344 C 157.882812 159.199219 159.898438 163.304688 159.871094 163.605469 L 160.8125 164.53125 C 162.585938 156.984375 168.464844 154.683594 168.464844 154.683594 C 171.253906 152.652344 174.515625 152.457031 174.515625 152.457031 C 174.515625 152.457031 179.214844 154.8125 183.640625 151.574219 C 187.234375 148.949219 187.78125 144.925781 190.1875 143.15625 C 197.421875 137.851562 247.15625 94.882812 247.15625 94.882812 C 247.15625 94.882812 186.597656 136.765625 173.210938 145.105469 " fill-opacity="1" fill-rule="nonzero"/></g><path fill="#fb9400" d="M 151.617188 174.441406 C 145.6875 179.207031 138.15625 179.6875 134.800781 175.507812 C 131.445312 171.328125 133.535156 164.078125 139.46875 159.3125 C 145.402344 154.546875 152.933594 154.070312 156.289062 158.25 C 159.640625 162.429688 157.554688 169.675781 151.617188 174.441406 Z M 159.039062 156.042969 C 154.824219 150.796875 145.367188 151.394531 137.914062 157.378906 C 130.460938 163.363281 127.835938 172.46875 132.050781 177.714844 C 136.265625 182.960938 145.722656 182.363281 153.171875 176.378906 C 160.625 170.390625 163.25 161.289062 159.039062 156.042969 " fill-opacity="1" fill-rule="nonzero"/><g clip-path="url(#f91768f2db)"><path fill="#fb9400" d="M 185.542969 151.84375 C 185.414062 155.121094 185.46875 158.207031 185.519531 159.824219 C 185.519531 159.824219 184.648438 165.296875 189.753906 172.582031 L 182.210938 172.207031 C 181.953125 172.359375 177.414062 172.875 177.167969 173.0625 L 175.886719 172.769531 C 181.277344 167.203125 180.042969 161.007812 180.042969 161.007812 C 180.242188 157.570312 178.648438 154.71875 178.648438 154.71875 C 178.648438 154.71875 174.128906 152.03125 174.464844 146.554688 C 174.730469 142.117188 177.824219 139.484375 178.011719 136.503906 C 178.570312 127.550781 187.882812 62.488281 187.882812 62.488281 C 187.882812 62.488281 185.332031 136.070312 185.542969 151.84375 " fill-opacity="1" fill-rule="nonzero"/></g><path fill="#fb9400" d="M 183.613281 173.1875 C 188.945312 173.753906 192.605469 180.347656 191.800781 187.914062 C 190.992188 195.484375 186.019531 201.160156 180.691406 200.589844 C 175.363281 200.019531 171.699219 193.425781 172.507812 185.859375 C 173.3125 178.289062 178.285156 172.617188 183.613281 173.1875 Z M 170.039062 185.597656 C 169.027344 195.097656 173.628906 203.378906 180.320312 204.097656 C 187.007812 204.808594 193.253906 197.683594 194.269531 188.179688 C 195.28125 178.675781 190.679688 170.394531 183.988281 169.679688 C 177.300781 168.96875 171.054688 176.089844 170.039062 185.597656 " fill-opacity="1" fill-rule="nonzero"/><path fill="#181a20" d="M 181.269531 148.765625 C 182.429688 148.21875 182.925781 146.835938 182.375 145.675781 C 181.828125 144.515625 180.441406 144.019531 179.28125 144.570312 C 178.121094 145.117188 177.628906 146.503906 178.179688 147.664062 C 178.730469 148.824219 180.113281 149.316406 181.269531 148.765625 " fill-opacity="1" fill-rule="nonzero"/><g clip-path="url(#1f4c475348)"><path fill="#fb9400" d="M 182.503906 214.152344 C 183.308594 214.589844 184.199219 214.976562 185.191406 215.292969 C 186.140625 215.59375 187.152344 215.070312 187.453125 214.121094 C 187.753906 213.171875 187.230469 212.160156 186.28125 211.859375 C 178.808594 209.484375 179.40625 202.472656 179.4375 202.175781 C 179.53125 201.1875 178.808594 200.304688 177.820312 200.207031 C 176.828125 200.109375 175.945312 200.835938 175.851562 201.824219 C 175.546875 204.917969 176.675781 210.96875 182.503906 214.152344 " fill-opacity="1" fill-rule="nonzero"/></g><path fill="#fb9400" d="M 182.125 204.097656 C 182.125 204.097656 179.320312 204.527344 179.945312 205.960938 C 180.574219 207.394531 177.117188 206.402344 177.117188 206.402344 L 175.910156 204.375 C 175.910156 204.375 175.894531 202.90625 174.414062 201.050781 C 172.933594 199.199219 174.730469 199.65625 175.070312 199.84375 C 175.410156 200.03125 182.734375 203.46875 182.125 204.097656 " fill-opacity="1" fill-rule="nonzero"/><g fill="#ffffff" fill-opacity="1"><g transform="translate(113.559767, 266.32721)"><g><path d="M 14.265625 -17.71875 L 13.28125 -16.46875 C 12.34375 -16.851562 11.46875 -17.097656 10.65625 -17.203125 C 9.84375 -17.304688 9.191406 -17.359375 8.703125 -17.359375 L 8.4375 -17.359375 L 8.4375 -4.359375 C 8.4375 -3.828125 8.441406 -3.347656 8.453125 -2.921875 C 8.472656 -2.492188 8.492188 -2.054688 8.515625 -1.609375 C 8.535156 -1.160156 8.566406 -0.625 8.609375 0 L 6.09375 0 C 6.132812 -0.625 6.164062 -1.160156 6.1875 -1.609375 C 6.207031 -2.054688 6.222656 -2.492188 6.234375 -2.921875 C 6.253906 -3.347656 6.265625 -3.828125 6.265625 -4.359375 L 6.265625 -17.359375 L 6 -17.359375 C 5.507812 -17.359375 4.863281 -17.304688 4.0625 -17.203125 C 3.257812 -17.097656 2.378906 -16.851562 1.421875 -16.46875 L 0.4375 -17.71875 Z M 14.265625 -17.71875 "/></g></g></g><g fill="#ffffff" fill-opacity="1"><g transform="translate(128.258604, 266.32721)"><g><path d="M 1.546875 -17.71875 L 4.078125 -17.71875 C 4.023438 -17.09375 3.984375 -16.554688 3.953125 -16.109375 C 3.929688 -15.660156 3.914062 -15.222656 3.90625 -14.796875 C 3.894531 -14.378906 3.890625 -13.894531 3.890625 -13.34375 L 3.890625 -4.359375 C 3.890625 -3.828125 3.894531 -3.347656 3.90625 -2.921875 C 3.914062 -2.492188 3.929688 -2.054688 3.953125 -1.609375 C 3.984375 -1.160156 4.023438 -0.625 4.078125 0 L 1.546875 0 C 1.585938 -0.625 1.625 -1.160156 1.65625 -1.609375 C 1.6875 -2.054688 1.707031 -2.492188 1.71875 -2.921875 C 1.726562 -3.347656 1.734375 -3.828125 1.734375 -4.359375 L 1.734375 -13.34375 C 1.734375 -13.894531 1.726562 -14.378906 1.71875 -14.796875 C 1.707031 -15.222656 1.6875 -15.660156 1.65625 -16.109375 C 1.625 -16.554688 1.585938 -17.09375 1.546875 -17.71875 Z M 1.546875 -17.71875 "/></g></g></g><g fill="#ffffff" fill-opacity="1"><g transform="translate(133.881349, 266.32721)"><g><path d="M 1.546875 0 C 1.585938 -0.625 1.625 -1.160156 1.65625 -1.609375 C 1.6875 -2.054688 1.707031 -2.492188 1.71875 -2.921875 C 1.726562 -3.347656 1.734375 -3.828125 1.734375 -4.359375 L 1.734375 -13.34375 C 1.734375 -13.894531 1.726562 -14.378906 1.71875 -14.796875 C 1.707031 -15.222656 1.6875 -15.660156 1.65625 -16.109375 C 1.625 -16.554688 1.585938 -17.09375 1.546875 -17.71875 L 3.984375 -17.71875 L 10.921875 -2.5 L 17.515625 -17.71875 L 19.796875 -17.71875 C 19.753906 -17.09375 19.71875 -16.554688 19.6875 -16.109375 C 19.65625 -15.660156 19.632812 -15.222656 19.625 -14.796875 C 19.613281 -14.378906 19.609375 -13.894531 19.609375 -13.34375 L 19.609375 -4.359375 C 19.609375 -3.828125 19.613281 -3.347656 19.625 -2.921875 C 19.632812 -2.492188 19.65625 -2.054688 19.6875 -1.609375 C 19.71875 -1.160156 19.753906 -0.625 19.796875 0 L 17.265625 0 C 17.316406 -0.625 17.351562 -1.160156 17.375 -1.609375 C 17.394531 -2.054688 17.40625 -2.492188 17.40625 -2.921875 C 17.414062 -3.347656 17.421875 -3.828125 17.421875 -4.359375 L 17.421875 -16.65625 L 10.140625 0.4375 L 9.734375 0.4375 L 2.078125 -16.578125 L 2.078125 -4.359375 C 2.078125 -3.828125 2.082031 -3.347656 2.09375 -2.921875 C 2.101562 -2.492188 2.117188 -2.054688 2.140625 -1.609375 C 2.171875 -1.160156 2.210938 -0.625 2.265625 0 Z M 1.546875 0 "/></g></g></g><g fill="#ffffff" fill-opacity="1"><g transform="translate(155.221226, 266.32721)"><g><path d="M 1.546875 -17.71875 L 12 -17.71875 L 11 -16.46875 C 10.382812 -16.71875 9.75 -16.90625 9.09375 -17.03125 C 8.4375 -17.15625 7.832031 -17.238281 7.28125 -17.28125 C 6.738281 -17.332031 6.296875 -17.359375 5.953125 -17.359375 L 3.9375 -17.359375 L 3.9375 -9.5625 L 5.359375 -9.5625 C 5.953125 -9.5625 6.578125 -9.570312 7.234375 -9.59375 C 7.898438 -9.613281 8.75 -9.675781 9.78125 -9.78125 L 9.78125 -8.984375 C 8.75 -9.109375 7.898438 -9.175781 7.234375 -9.1875 C 6.578125 -9.195312 5.953125 -9.203125 5.359375 -9.203125 L 3.9375 -9.203125 L 3.9375 -0.359375 L 6.421875 -0.359375 C 7.160156 -0.359375 7.835938 -0.375 8.453125 -0.40625 C 9.078125 -0.445312 9.71875 -0.53125 10.375 -0.65625 C 11.03125 -0.78125 11.769531 -0.960938 12.59375 -1.203125 L 11.953125 0 L 1.546875 0 C 1.609375 -0.625 1.65625 -1.160156 1.6875 -1.609375 C 1.71875 -2.054688 1.734375 -2.492188 1.734375 -2.921875 C 1.742188 -3.347656 1.75 -3.828125 1.75 -4.359375 L 1.75 -13.34375 C 1.75 -13.894531 1.742188 -14.378906 1.734375 -14.796875 C 1.734375 -15.222656 1.71875 -15.660156 1.6875 -16.109375 C 1.65625 -16.554688 1.609375 -17.09375 1.546875 -17.71875 Z M 1.546875 -17.71875 "/></g></g></g><g fill="#ffffff" fill-opacity="1"><g transform="translate(168.481174, 266.32721)"><g><path d="M 1.59375 -17.71875 L 4.125 -17.71875 C 4.070312 -17.09375 4.03125 -16.554688 4 -16.109375 C 3.976562 -15.660156 3.960938 -15.222656 3.953125 -14.796875 C 3.941406 -14.378906 3.9375 -13.894531 3.9375 -13.34375 L 3.9375 -0.359375 L 5.796875 -0.359375 C 6.535156 -0.359375 7.210938 -0.375 7.828125 -0.40625 C 8.453125 -0.445312 9.09375 -0.53125 9.75 -0.65625 C 10.40625 -0.78125 11.148438 -0.960938 11.984375 -1.203125 L 11.34375 0 L 1.546875 0 C 1.609375 -0.625 1.65625 -1.160156 1.6875 -1.609375 C 1.71875 -2.054688 1.738281 -2.492188 1.75 -2.921875 C 1.757812 -3.347656 1.765625 -3.828125 1.765625 -4.359375 L 1.765625 -13.34375 C 1.765625 -13.894531 1.757812 -14.378906 1.75 -14.796875 C 1.75 -15.222656 1.734375 -15.660156 1.703125 -16.109375 C 1.671875 -16.554688 1.632812 -17.09375 1.59375 -17.71875 Z M 1.59375 -17.71875 "/></g></g></g><g fill="#ffffff" fill-opacity="1"><g transform="translate(181.342661, 266.32721)"><g><path d="M 13 -15.65625 L 8.90625 -7.640625 L 8.90625 -4.359375 C 8.90625 -3.828125 8.90625 -3.347656 8.90625 -2.921875 C 8.914062 -2.492188 8.929688 -2.054688 8.953125 -1.609375 C 8.972656 -1.160156 9.007812 -0.625 9.0625 0 L 6.53125 0 C 6.59375 -0.625 6.632812 -1.160156 6.65625 -1.609375 C 6.675781 -2.054688 6.6875 -2.492188 6.6875 -2.921875 C 6.695312 -3.347656 6.703125 -3.828125 6.703125 -4.359375 L 6.703125 -7.640625 L 2.484375 -15.625 C 2.253906 -16.0625 2.046875 -16.414062 1.859375 -16.6875 C 1.679688 -16.96875 1.429688 -17.3125 1.109375 -17.71875 L 4 -17.71875 C 4.15625 -17.289062 4.296875 -16.9375 4.421875 -16.65625 C 4.554688 -16.382812 4.734375 -16.039062 4.953125 -15.625 L 8.828125 -8.328125 L 12.625 -15.625 C 12.84375 -16.0625 13.015625 -16.410156 13.140625 -16.671875 C 13.265625 -16.941406 13.414062 -17.289062 13.59375 -17.71875 L 14.1875 -17.71875 C 13.90625 -17.289062 13.6875 -16.9375 13.53125 -16.65625 C 13.382812 -16.382812 13.207031 -16.050781 13 -15.65625 Z M 13 -15.65625 "/></g></g></g><g fill="#ffffff" fill-opacity="1"><g transform="translate(196.6392, 266.32721)"><g/></g></g><g fill="#ffffff" fill-opacity="1"><g transform="translate(202.970323, 266.32721)"><g><path d="M 14.265625 -17.71875 L 13.28125 -16.46875 C 12.34375 -16.851562 11.46875 -17.097656 10.65625 -17.203125 C 9.84375 -17.304688 9.191406 -17.359375 8.703125 -17.359375 L 8.4375 -17.359375 L 8.4375 -4.359375 C 8.4375 -3.828125 8.441406 -3.347656 8.453125 -2.921875 C 8.472656 -2.492188 8.492188 -2.054688 8.515625 -1.609375 C 8.535156 -1.160156 8.566406 -0.625 8.609375 0 L 6.09375 0 C 6.132812 -0.625 6.164062 -1.160156 6.1875 -1.609375 C 6.207031 -2.054688 6.222656 -2.492188 6.234375 -2.921875 C 6.253906 -3.347656 6.265625 -3.828125 6.265625 -4.359375 L 6.265625 -17.359375 L 6 -17.359375 C 5.507812 -17.359375 4.863281 -17.304688 4.0625 -17.203125 C 3.257812 -17.097656 2.378906 -16.851562 1.421875 -16.46875 L 0.4375 -17.71875 Z M 14.265625 -17.71875 "/></g></g></g><g fill="#ffffff" fill-opacity="1"><g transform="translate(217.669159, 266.32721)"><g><path d="M 11.796875 -4.203125 C 12.179688 -3.210938 12.5625 -2.4375 12.9375 -1.875 C 13.3125 -1.320312 13.742188 -0.925781 14.234375 -0.6875 C 14.722656 -0.445312 15.304688 -0.328125 15.984375 -0.328125 L 15.984375 0 C 14.773438 0 13.757812 -0.117188 12.9375 -0.359375 C 12.125 -0.609375 11.453125 -1.023438 10.921875 -1.609375 C 10.398438 -2.203125 9.957031 -3.015625 9.59375 -4.046875 C 9.175781 -5.210938 8.734375 -6.09375 8.265625 -6.6875 C 7.804688 -7.28125 7.285156 -7.675781 6.703125 -7.875 C 6.128906 -8.082031 5.457031 -8.1875 4.6875 -8.1875 L 3.890625 -8.1875 L 3.890625 -4.359375 C 3.890625 -3.828125 3.894531 -3.347656 3.90625 -2.921875 C 3.914062 -2.492188 3.929688 -2.054688 3.953125 -1.609375 C 3.984375 -1.160156 4.023438 -0.625 4.078125 0 L 1.546875 0 C 1.585938 -0.625 1.625 -1.160156 1.65625 -1.609375 C 1.6875 -2.054688 1.707031 -2.492188 1.71875 -2.921875 C 1.726562 -3.347656 1.734375 -3.828125 1.734375 -4.359375 L 1.734375 -13.34375 C 1.734375 -13.894531 1.726562 -14.378906 1.71875 -14.796875 C 1.707031 -15.222656 1.6875 -15.660156 1.65625 -16.109375 C 1.625 -16.554688 1.585938 -17.09375 1.546875 -17.71875 L 5.640625 -17.71875 C 6.628906 -17.71875 7.566406 -17.644531 8.453125 -17.5 C 9.335938 -17.363281 10.125 -17.117188 10.8125 -16.765625 C 11.5 -16.421875 12.035156 -15.9375 12.421875 -15.3125 C 12.816406 -14.695312 13.015625 -13.910156 13.015625 -12.953125 C 13.015625 -11.828125 12.753906 -10.9375 12.234375 -10.28125 C 11.722656 -9.625 11.023438 -9.140625 10.140625 -8.828125 C 9.265625 -8.523438 8.285156 -8.328125 7.203125 -8.234375 C 8.160156 -8.054688 9.03125 -7.671875 9.8125 -7.078125 C 10.601562 -6.492188 11.265625 -5.535156 11.796875 -4.203125 Z M 3.890625 -8.546875 L 5.625 -8.546875 C 6.269531 -8.546875 6.898438 -8.609375 7.515625 -8.734375 C 8.128906 -8.867188 8.675781 -9.097656 9.15625 -9.421875 C 9.644531 -9.753906 10.035156 -10.203125 10.328125 -10.765625 C 10.617188 -11.335938 10.765625 -12.066406 10.765625 -12.953125 C 10.765625 -13.835938 10.617188 -14.5625 10.328125 -15.125 C 10.035156 -15.695312 9.644531 -16.144531 9.15625 -16.46875 C 8.675781 -16.789062 8.128906 -17.019531 7.515625 -17.15625 C 6.898438 -17.289062 6.269531 -17.359375 5.625 -17.359375 L 3.890625 -17.359375 Z M 3.890625 -8.546875 "/></g></g></g><g fill="#ffffff" fill-opacity="1"><g transform="translate(234.470997, 266.32721)"><g><path d="M 1.546875 -17.71875 L 4.078125 -17.71875 C 4.023438 -17.09375 3.984375 -16.554688 3.953125 -16.109375 C 3.929688 -15.660156 3.914062 -15.222656 3.90625 -14.796875 C 3.894531 -14.378906 3.890625 -13.894531 3.890625 -13.34375 L 3.890625 -4.359375 C 3.890625 -3.828125 3.894531 -3.347656 3.90625 -2.921875 C 3.914062 -2.492188 3.929688 -2.054688 3.953125 -1.609375 C 3.984375 -1.160156 4.023438 -0.625 4.078125 0 L 1.546875 0 C 1.585938 -0.625 1.625 -1.160156 1.65625 -1.609375 C 1.6875 -2.054688 1.707031 -2.492188 1.71875 -2.921875 C 1.726562 -3.347656 1.734375 -3.828125 1.734375 -4.359375 L 1.734375 -13.34375 C 1.734375 -13.894531 1.726562 -14.378906 1.71875 -14.796875 C 1.707031 -15.222656 1.6875 -15.660156 1.65625 -16.109375 C 1.625 -16.554688 1.585938 -17.09375 1.546875 -17.71875 Z M 1.546875 -17.71875 "/></g></g></g><g fill="#ffffff" fill-opacity="1"><g transform="translate(240.093742, 266.32721)"><g><path d="M 1.546875 0 C 1.585938 -0.625 1.625 -1.160156 1.65625 -1.609375 C 1.6875 -2.054688 1.707031 -2.492188 1.71875 -2.921875 C 1.726562 -3.347656 1.734375 -3.828125 1.734375 -4.359375 L 1.734375 -13.34375 C 1.734375 -13.894531 1.726562 -14.378906 1.71875 -14.796875 C 1.707031 -15.222656 1.6875 -15.660156 1.65625 -16.109375 C 1.625 -16.554688 1.585938 -17.09375 1.546875 -17.71875 L 3.984375 -17.71875 L 10.921875 -2.5 L 17.515625 -17.71875 L 19.796875 -17.71875 C 19.753906 -17.09375 19.71875 -16.554688 19.6875 -16.109375 C 19.65625 -15.660156 19.632812 -15.222656 19.625 -14.796875 C 19.613281 -14.378906 19.609375 -13.894531 19.609375 -13.34375 L 19.609375 -4.359375 C 19.609375 -3.828125 19.613281 -3.347656 19.625 -2.921875 C 19.632812 -2.492188 19.65625 -2.054688 19.6875 -1.609375 C 19.71875 -1.160156 19.753906 -0.625 19.796875 0 L 17.265625 0 C 17.316406 -0.625 17.351562 -1.160156 17.375 -1.609375 C 17.394531 -2.054688 17.40625 -2.492188 17.40625 -2.921875 C 17.414062 -3.347656 17.421875 -3.828125 17.421875 -4.359375 L 17.421875 -16.65625 L 10.140625 0.4375 L 9.734375 0.4375 L 2.078125 -16.578125 L 2.078125 -4.359375 C 2.078125 -3.828125 2.082031 -3.347656 2.09375 -2.921875 C 2.101562 -2.492188 2.117188 -2.054688 2.140625 -1.609375 C 2.171875 -1.160156 2.210938 -0.625 2.265625 0 Z M 1.546875 0 "/></g></g></g><g fill="#fb9400" fill-opacity="1"><g transform="translate(120.687076, 283.651208)"><g><path d="M 6.78125 -9.28125 L 6.359375 -8.796875 C 5.859375 -8.941406 5.390625 -9.035156 4.953125 -9.078125 C 4.515625 -9.117188 4.179688 -9.140625 3.953125 -9.140625 L 3.84375 -9.140625 L 3.84375 -2.171875 C 3.84375 -1.929688 3.84375 -1.710938 3.84375 -1.515625 C 3.84375 -1.316406 3.847656 -1.097656 3.859375 -0.859375 C 3.867188 -0.628906 3.882812 -0.34375 3.90625 0 L 3.109375 0 C 3.128906 -0.34375 3.144531 -0.628906 3.15625 -0.859375 C 3.164062 -1.097656 3.171875 -1.316406 3.171875 -1.515625 C 3.171875 -1.710938 3.171875 -1.929688 3.171875 -2.171875 L 3.171875 -9.140625 L 3.046875 -9.140625 C 2.828125 -9.140625 2.5 -9.117188 2.0625 -9.078125 C 1.625 -9.035156 1.15625 -8.941406 0.65625 -8.796875 L 0.234375 -9.28125 Z M 6.78125 -9.28125 "/></g></g></g><g fill="#fb9400" fill-opacity="1"><g transform="translate(130.720785, 283.651208)"><g><path d="M 6.71875 -7.109375 L 6.71875 -2.171875 C 6.71875 -1.929688 6.71875 -1.710938 6.71875 -1.515625 C 6.71875 -1.316406 6.722656 -1.097656 6.734375 -0.859375 C 6.753906 -0.628906 6.773438 -0.34375 6.796875 0 L 5.984375 0 C 6.003906 -0.34375 6.019531 -0.628906 6.03125 -0.859375 C 6.039062 -1.097656 6.046875 -1.316406 6.046875 -1.515625 C 6.054688 -1.710938 6.0625 -1.929688 6.0625 -2.171875 L 6.0625 -4.5625 L 1.546875 -4.5625 L 1.546875 -2.171875 C 1.546875 -1.929688 1.546875 -1.710938 1.546875 -1.515625 C 1.546875 -1.316406 1.550781 -1.097656 1.5625 -0.859375 C 1.582031 -0.628906 1.597656 -0.34375 1.609375 0 L 0.8125 0 C 0.832031 -0.34375 0.847656 -0.628906 0.859375 -0.859375 C 0.867188 -1.097656 0.875 -1.316406 0.875 -1.515625 C 0.875 -1.710938 0.875 -1.929688 0.875 -2.171875 L 0.875 -7.109375 C 0.875 -7.347656 0.875 -7.566406 0.875 -7.765625 C 0.875 -7.960938 0.867188 -8.175781 0.859375 -8.40625 C 0.847656 -8.644531 0.832031 -8.9375 0.8125 -9.28125 L 1.609375 -9.28125 C 1.597656 -8.9375 1.582031 -8.644531 1.5625 -8.40625 C 1.550781 -8.175781 1.546875 -7.960938 1.546875 -7.765625 C 1.546875 -7.566406 1.546875 -7.347656 1.546875 -7.109375 L 1.546875 -4.703125 L 6.0625 -4.703125 L 6.0625 -7.109375 C 6.0625 -7.347656 6.054688 -7.566406 6.046875 -7.765625 C 6.046875 -7.960938 6.039062 -8.175781 6.03125 -8.40625 C 6.019531 -8.644531 6.003906 -8.9375 5.984375 -9.28125 L 6.796875 -9.28125 C 6.773438 -8.9375 6.753906 -8.644531 6.734375 -8.40625 C 6.722656 -8.175781 6.71875 -7.960938 6.71875 -7.765625 C 6.71875 -7.566406 6.71875 -7.347656 6.71875 -7.109375 Z M 6.71875 -7.109375 "/></g></g></g><g fill="#fb9400" fill-opacity="1"><g transform="translate(141.346074, 283.651208)"><g><path d="M 0.8125 -9.28125 L 5.78125 -9.28125 L 5.375 -8.796875 C 5.039062 -8.890625 4.691406 -8.957031 4.328125 -9 C 3.960938 -9.050781 3.628906 -9.085938 3.328125 -9.109375 C 3.035156 -9.128906 2.8125 -9.140625 2.65625 -9.140625 L 1.5625 -9.140625 L 1.5625 -5.015625 L 2.390625 -5.015625 C 2.703125 -5.015625 3.03125 -5.019531 3.375 -5.03125 C 3.71875 -5.039062 4.160156 -5.070312 4.703125 -5.125 L 4.703125 -4.75 C 4.160156 -4.8125 3.71875 -4.847656 3.375 -4.859375 C 3.03125 -4.867188 2.703125 -4.875 2.390625 -4.875 L 1.5625 -4.875 L 1.5625 -0.15625 L 3.03125 -0.15625 C 3.582031 -0.15625 4.09375 -0.171875 4.5625 -0.203125 C 5.039062 -0.242188 5.566406 -0.332031 6.140625 -0.46875 L 5.859375 0 L 0.8125 0 C 0.84375 -0.34375 0.863281 -0.628906 0.875 -0.859375 C 0.882812 -1.097656 0.890625 -1.316406 0.890625 -1.515625 C 0.898438 -1.710938 0.90625 -1.929688 0.90625 -2.171875 L 0.90625 -7.109375 C 0.90625 -7.347656 0.898438 -7.566406 0.890625 -7.765625 C 0.890625 -7.960938 0.882812 -8.175781 0.875 -8.40625 C 0.863281 -8.644531 0.84375 -8.9375 0.8125 -9.28125 Z M 0.8125 -9.28125 "/></g></g></g><g fill="#fb9400" fill-opacity="1"><g transform="translate(150.846201, 283.651208)"><g/></g></g><g fill="#fb9400" fill-opacity="1"><g transform="translate(157.144809, 283.651208)"><g><path d="M 3.890625 -5.296875 C 4.316406 -5.222656 4.726562 -5.082031 5.125 -4.875 C 5.519531 -4.664062 5.84375 -4.375 6.09375 -4 C 6.351562 -3.632812 6.484375 -3.160156 6.484375 -2.578125 C 6.484375 -2.085938 6.382812 -1.671875 6.1875 -1.328125 C 5.988281 -0.992188 5.722656 -0.726562 5.390625 -0.53125 C 5.054688 -0.34375 4.675781 -0.207031 4.25 -0.125 C 3.832031 -0.0390625 3.390625 0 2.921875 0 L 0.8125 0 C 0.832031 -0.34375 0.847656 -0.628906 0.859375 -0.859375 C 0.867188 -1.097656 0.875 -1.316406 0.875 -1.515625 C 0.875 -1.710938 0.875 -1.929688 0.875 -2.171875 L 0.875 -7.109375 C 0.875 -7.347656 0.875 -7.566406 0.875 -7.765625 C 0.875 -7.960938 0.867188 -8.175781 0.859375 -8.40625 C 0.847656 -8.644531 0.832031 -8.9375 0.8125 -9.28125 L 2.78125 -9.28125 C 3.125 -9.28125 3.476562 -9.253906 3.84375 -9.203125 C 4.207031 -9.160156 4.539062 -9.066406 4.84375 -8.921875 C 5.15625 -8.785156 5.40625 -8.582031 5.59375 -8.3125 C 5.78125 -8.039062 5.875 -7.679688 5.875 -7.234375 C 5.875 -6.703125 5.71875 -6.269531 5.40625 -5.9375 C 5.101562 -5.613281 4.597656 -5.398438 3.890625 -5.296875 Z M 1.546875 -9.140625 L 1.546875 -5.375 L 2.78125 -5.375 C 3.65625 -5.375 4.269531 -5.535156 4.625 -5.859375 C 4.988281 -6.191406 5.171875 -6.648438 5.171875 -7.234375 C 5.171875 -7.640625 5.082031 -7.96875 4.90625 -8.21875 C 4.738281 -8.46875 4.523438 -8.65625 4.265625 -8.78125 C 4.003906 -8.914062 3.722656 -9.007812 3.421875 -9.0625 C 3.128906 -9.113281 2.863281 -9.140625 2.625 -9.140625 Z M 2.734375 -0.15625 C 3.265625 -0.15625 3.753906 -0.234375 4.203125 -0.390625 C 4.660156 -0.554688 5.03125 -0.816406 5.3125 -1.171875 C 5.59375 -1.535156 5.734375 -2.015625 5.734375 -2.609375 C 5.734375 -3.140625 5.632812 -3.570312 5.4375 -3.90625 C 5.238281 -4.25 4.984375 -4.519531 4.671875 -4.71875 C 4.367188 -4.914062 4.054688 -5.050781 3.734375 -5.125 C 3.421875 -5.195312 3.144531 -5.234375 2.90625 -5.234375 L 1.546875 -5.234375 L 1.546875 -0.15625 Z M 2.734375 -0.15625 "/></g></g></g><g fill="#fb9400" fill-opacity="1"><g transform="translate(167.224906, 283.651208)"><g><path d="M 6.265625 -1.15625 C 6.328125 -0.914062 6.390625 -0.71875 6.453125 -0.5625 C 6.515625 -0.414062 6.601562 -0.226562 6.71875 0 L 5.8125 0 C 5.789062 -0.25 5.757812 -0.441406 5.71875 -0.578125 C 5.6875 -0.722656 5.640625 -0.914062 5.578125 -1.15625 L 4.921875 -3.421875 L 1.78125 -3.421875 L 1.125 -1.125 C 1.0625 -0.90625 1.003906 -0.722656 0.953125 -0.578125 C 0.898438 -0.429688 0.867188 -0.238281 0.859375 0 L 0.578125 0 C 0.691406 -0.238281 0.769531 -0.425781 0.8125 -0.5625 C 0.851562 -0.707031 0.90625 -0.890625 0.96875 -1.109375 L 3.171875 -8.765625 C 3.210938 -8.929688 3.203125 -9.101562 3.140625 -9.28125 L 3.953125 -9.28125 Z M 1.8125 -3.5625 L 4.890625 -3.5625 L 3.359375 -8.890625 Z M 1.8125 -3.5625 "/></g></g></g><g fill="#fb9400" fill-opacity="1"><g transform="translate(177.536999, 283.651208)"><g><path d="M 5.46875 -2.234375 C 5.675781 -1.691406 5.878906 -1.265625 6.078125 -0.953125 C 6.285156 -0.648438 6.519531 -0.4375 6.78125 -0.3125 C 7.039062 -0.195312 7.351562 -0.140625 7.71875 -0.140625 L 7.71875 0 C 7.144531 0 6.675781 -0.0703125 6.3125 -0.21875 C 5.957031 -0.363281 5.664062 -0.59375 5.4375 -0.90625 C 5.207031 -1.21875 5.003906 -1.628906 4.828125 -2.140625 C 4.609375 -2.734375 4.363281 -3.1875 4.09375 -3.5 C 3.820312 -3.8125 3.515625 -4.019531 3.171875 -4.125 C 2.835938 -4.238281 2.460938 -4.296875 2.046875 -4.296875 L 1.546875 -4.296875 L 1.546875 -2.171875 C 1.546875 -1.929688 1.546875 -1.710938 1.546875 -1.515625 C 1.546875 -1.316406 1.550781 -1.097656 1.5625 -0.859375 C 1.582031 -0.628906 1.597656 -0.34375 1.609375 0 L 0.8125 0 C 0.832031 -0.34375 0.847656 -0.628906 0.859375 -0.859375 C 0.867188 -1.097656 0.875 -1.316406 0.875 -1.515625 C 0.875 -1.710938 0.875 -1.929688 0.875 -2.171875 L 0.875 -7.109375 C 0.875 -7.347656 0.875 -7.566406 0.875 -7.765625 C 0.875 -7.960938 0.867188 -8.175781 0.859375 -8.40625 C 0.847656 -8.644531 0.832031 -8.9375 0.8125 -9.28125 L 2.53125 -9.28125 C 3.019531 -9.28125 3.484375 -9.242188 3.921875 -9.171875 C 4.367188 -9.097656 4.757812 -8.96875 5.09375 -8.78125 C 5.4375 -8.59375 5.703125 -8.335938 5.890625 -8.015625 C 6.085938 -7.691406 6.1875 -7.28125 6.1875 -6.78125 C 6.1875 -6.195312 6.054688 -5.734375 5.796875 -5.390625 C 5.535156 -5.046875 5.179688 -4.789062 4.734375 -4.625 C 4.296875 -4.457031 3.804688 -4.351562 3.265625 -4.3125 C 3.710938 -4.21875 4.128906 -4.019531 4.515625 -3.71875 C 4.898438 -3.414062 5.21875 -2.921875 5.46875 -2.234375 Z M 1.546875 -4.4375 L 2.53125 -4.4375 C 2.894531 -4.4375 3.253906 -4.472656 3.609375 -4.546875 C 3.960938 -4.617188 4.28125 -4.738281 4.5625 -4.90625 C 4.84375 -5.082031 5.066406 -5.320312 5.234375 -5.625 C 5.398438 -5.925781 5.484375 -6.3125 5.484375 -6.78125 C 5.484375 -7.25 5.398438 -7.632812 5.234375 -7.9375 C 5.066406 -8.25 4.84375 -8.488281 4.5625 -8.65625 C 4.28125 -8.832031 3.960938 -8.957031 3.609375 -9.03125 C 3.253906 -9.101562 2.894531 -9.140625 2.53125 -9.140625 L 1.546875 -9.140625 Z M 1.546875 -4.4375 "/></g></g></g><g fill="#fb9400" fill-opacity="1"><g transform="translate(188.719072, 283.651208)"><g><path d="M 3.890625 -5.296875 C 4.316406 -5.222656 4.726562 -5.082031 5.125 -4.875 C 5.519531 -4.664062 5.84375 -4.375 6.09375 -4 C 6.351562 -3.632812 6.484375 -3.160156 6.484375 -2.578125 C 6.484375 -2.085938 6.382812 -1.671875 6.1875 -1.328125 C 5.988281 -0.992188 5.722656 -0.726562 5.390625 -0.53125 C 5.054688 -0.34375 4.675781 -0.207031 4.25 -0.125 C 3.832031 -0.0390625 3.390625 0 2.921875 0 L 0.8125 0 C 0.832031 -0.34375 0.847656 -0.628906 0.859375 -0.859375 C 0.867188 -1.097656 0.875 -1.316406 0.875 -1.515625 C 0.875 -1.710938 0.875 -1.929688 0.875 -2.171875 L 0.875 -7.109375 C 0.875 -7.347656 0.875 -7.566406 0.875 -7.765625 C 0.875 -7.960938 0.867188 -8.175781 0.859375 -8.40625 C 0.847656 -8.644531 0.832031 -8.9375 0.8125 -9.28125 L 2.78125 -9.28125 C 3.125 -9.28125 3.476562 -9.253906 3.84375 -9.203125 C 4.207031 -9.160156 4.539062 -9.066406 4.84375 -8.921875 C 5.15625 -8.785156 5.40625 -8.582031 5.59375 -8.3125 C 5.78125 -8.039062 5.875 -7.679688 5.875 -7.234375 C 5.875 -6.703125 5.71875 -6.269531 5.40625 -5.9375 C 5.101562 -5.613281 4.597656 -5.398438 3.890625 -5.296875 Z M 1.546875 -9.140625 L 1.546875 -5.375 L 2.78125 -5.375 C 3.65625 -5.375 4.269531 -5.535156 4.625 -5.859375 C 4.988281 -6.191406 5.171875 -6.648438 5.171875 -7.234375 C 5.171875 -7.640625 5.082031 -7.96875 4.90625 -8.21875 C 4.738281 -8.46875 4.523438 -8.65625 4.265625 -8.78125 C 4.003906 -8.914062 3.722656 -9.007812 3.421875 -9.0625 C 3.128906 -9.113281 2.863281 -9.140625 2.625 -9.140625 Z M 2.734375 -0.15625 C 3.265625 -0.15625 3.753906 -0.234375 4.203125 -0.390625 C 4.660156 -0.554688 5.03125 -0.816406 5.3125 -1.171875 C 5.59375 -1.535156 5.734375 -2.015625 5.734375 -2.609375 C 5.734375 -3.140625 5.632812 -3.570312 5.4375 -3.90625 C 5.238281 -4.25 4.984375 -4.519531 4.671875 -4.71875 C 4.367188 -4.914062 4.054688 -5.050781 3.734375 -5.125 C 3.421875 -5.195312 3.144531 -5.234375 2.90625 -5.234375 L 1.546875 -5.234375 L 1.546875 -0.15625 Z M 2.734375 -0.15625 "/></g></g></g><g fill="#fb9400" fill-opacity="1"><g transform="translate(198.799172, 283.651208)"><g><path d="M 0.8125 -9.28125 L 5.78125 -9.28125 L 5.375 -8.796875 C 5.039062 -8.890625 4.691406 -8.957031 4.328125 -9 C 3.960938 -9.050781 3.628906 -9.085938 3.328125 -9.109375 C 3.035156 -9.128906 2.8125 -9.140625 2.65625 -9.140625 L 1.5625 -9.140625 L 1.5625 -5.015625 L 2.390625 -5.015625 C 2.703125 -5.015625 3.03125 -5.019531 3.375 -5.03125 C 3.71875 -5.039062 4.160156 -5.070312 4.703125 -5.125 L 4.703125 -4.75 C 4.160156 -4.8125 3.71875 -4.847656 3.375 -4.859375 C 3.03125 -4.867188 2.703125 -4.875 2.390625 -4.875 L 1.5625 -4.875 L 1.5625 -0.15625 L 3.03125 -0.15625 C 3.582031 -0.15625 4.09375 -0.171875 4.5625 -0.203125 C 5.039062 -0.242188 5.566406 -0.332031 6.140625 -0.46875 L 5.859375 0 L 0.8125 0 C 0.84375 -0.34375 0.863281 -0.628906 0.875 -0.859375 C 0.882812 -1.097656 0.890625 -1.316406 0.890625 -1.515625 C 0.898438 -1.710938 0.90625 -1.929688 0.90625 -2.171875 L 0.90625 -7.109375 C 0.90625 -7.347656 0.898438 -7.566406 0.890625 -7.765625 C 0.890625 -7.960938 0.882812 -8.175781 0.875 -8.40625 C 0.863281 -8.644531 0.84375 -8.9375 0.8125 -9.28125 Z M 0.8125 -9.28125 "/></g></g></g><g fill="#fb9400" fill-opacity="1"><g transform="translate(208.2993, 283.651208)"><g><path d="M 5.46875 -2.234375 C 5.675781 -1.691406 5.878906 -1.265625 6.078125 -0.953125 C 6.285156 -0.648438 6.519531 -0.4375 6.78125 -0.3125 C 7.039062 -0.195312 7.351562 -0.140625 7.71875 -0.140625 L 7.71875 0 C 7.144531 0 6.675781 -0.0703125 6.3125 -0.21875 C 5.957031 -0.363281 5.664062 -0.59375 5.4375 -0.90625 C 5.207031 -1.21875 5.003906 -1.628906 4.828125 -2.140625 C 4.609375 -2.734375 4.363281 -3.1875 4.09375 -3.5 C 3.820312 -3.8125 3.515625 -4.019531 3.171875 -4.125 C 2.835938 -4.238281 2.460938 -4.296875 2.046875 -4.296875 L 1.546875 -4.296875 L 1.546875 -2.171875 C 1.546875 -1.929688 1.546875 -1.710938 1.546875 -1.515625 C 1.546875 -1.316406 1.550781 -1.097656 1.5625 -0.859375 C 1.582031 -0.628906 1.597656 -0.34375 1.609375 0 L 0.8125 0 C 0.832031 -0.34375 0.847656 -0.628906 0.859375 -0.859375 C 0.867188 -1.097656 0.875 -1.316406 0.875 -1.515625 C 0.875 -1.710938 0.875 -1.929688 0.875 -2.171875 L 0.875 -7.109375 C 0.875 -7.347656 0.875 -7.566406 0.875 -7.765625 C 0.875 -7.960938 0.867188 -8.175781 0.859375 -8.40625 C 0.847656 -8.644531 0.832031 -8.9375 0.8125 -9.28125 L 2.53125 -9.28125 C 3.019531 -9.28125 3.484375 -9.242188 3.921875 -9.171875 C 4.367188 -9.097656 4.757812 -8.96875 5.09375 -8.78125 C 5.4375 -8.59375 5.703125 -8.335938 5.890625 -8.015625 C 6.085938 -7.691406 6.1875 -7.28125 6.1875 -6.78125 C 6.1875 -6.195312 6.054688 -5.734375 5.796875 -5.390625 C 5.535156 -5.046875 5.179688 -4.789062 4.734375 -4.625 C 4.296875 -4.457031 3.804688 -4.351562 3.265625 -4.3125 C 3.710938 -4.21875 4.128906 -4.019531 4.515625 -3.71875 C 4.898438 -3.414062 5.21875 -2.921875 5.46875 -2.234375 Z M 1.546875 -4.4375 L 2.53125 -4.4375 C 2.894531 -4.4375 3.253906 -4.472656 3.609375 -4.546875 C 3.960938 -4.617188 4.28125 -4.738281 4.5625 -4.90625 C 4.84375 -5.082031 5.066406 -5.320312 5.234375 -5.625 C 5.398438 -5.925781 5.484375 -6.3125 5.484375 -6.78125 C 5.484375 -7.25 5.398438 -7.632812 5.234375 -7.9375 C 5.066406 -8.25 4.84375 -8.488281 4.5625 -8.65625 C 4.28125 -8.832031 3.960938 -8.957031 3.609375 -9.03125 C 3.253906 -9.101562 2.894531 -9.140625 2.53125 -9.140625 L 1.546875 -9.140625 Z M 1.546875 -4.4375 "/></g></g></g><g fill="#fb9400" fill-opacity="1"><g transform="translate(219.481376, 283.651208)"><g/></g></g><g fill="#fb9400" fill-opacity="1"><g transform="translate(225.779989, 283.651208)"><g><path d="M 6.71875 -7.109375 L 6.71875 -2.171875 C 6.71875 -1.929688 6.71875 -1.710938 6.71875 -1.515625 C 6.71875 -1.316406 6.722656 -1.097656 6.734375 -0.859375 C 6.753906 -0.628906 6.773438 -0.34375 6.796875 0 L 5.984375 0 C 6.003906 -0.34375 6.019531 -0.628906 6.03125 -0.859375 C 6.039062 -1.097656 6.046875 -1.316406 6.046875 -1.515625 C 6.054688 -1.710938 6.0625 -1.929688 6.0625 -2.171875 L 6.0625 -4.5625 L 1.546875 -4.5625 L 1.546875 -2.171875 C 1.546875 -1.929688 1.546875 -1.710938 1.546875 -1.515625 C 1.546875 -1.316406 1.550781 -1.097656 1.5625 -0.859375 C 1.582031 -0.628906 1.597656 -0.34375 1.609375 0 L 0.8125 0 C 0.832031 -0.34375 0.847656 -0.628906 0.859375 -0.859375 C 0.867188 -1.097656 0.875 -1.316406 0.875 -1.515625 C 0.875 -1.710938 0.875 -1.929688 0.875 -2.171875 L 0.875 -7.109375 C 0.875 -7.347656 0.875 -7.566406 0.875 -7.765625 C 0.875 -7.960938 0.867188 -8.175781 0.859375 -8.40625 C 0.847656 -8.644531 0.832031 -8.9375 0.8125 -9.28125 L 1.609375 -9.28125 C 1.597656 -8.9375 1.582031 -8.644531 1.5625 -8.40625 C 1.550781 -8.175781 1.546875 -7.960938 1.546875 -7.765625 C 1.546875 -7.566406 1.546875 -7.347656 1.546875 -7.109375 L 1.546875 -4.703125 L 6.0625 -4.703125 L 6.0625 -7.109375 C 6.0625 -7.347656 6.054688 -7.566406 6.046875 -7.765625 C 6.046875 -7.960938 6.039062 -8.175781 6.03125 -8.40625 C 6.019531 -8.644531 6.003906 -8.9375 5.984375 -9.28125 L 6.796875 -9.28125 C 6.773438 -8.9375 6.753906 -8.644531 6.734375 -8.40625 C 6.722656 -8.175781 6.71875 -7.960938 6.71875 -7.765625 C 6.71875 -7.566406 6.71875 -7.347656 6.71875 -7.109375 Z M 6.71875 -7.109375 "/></g></g></g><g fill="#fb9400" fill-opacity="1"><g transform="translate(236.40528, 283.651208)"><g><path d="M 0.703125 -9.28125 L 1.5 -9.28125 C 1.476562 -8.9375 1.460938 -8.644531 1.453125 -8.40625 C 1.441406 -8.175781 1.429688 -7.960938 1.421875 -7.765625 C 1.421875 -7.566406 1.421875 -7.347656 1.421875 -7.109375 L 1.421875 -3.9375 C 1.421875 -2.539062 1.632812 -1.53125 2.0625 -0.90625 C 2.5 -0.289062 3.171875 0.015625 4.078125 0.015625 C 4.691406 0.015625 5.203125 -0.109375 5.609375 -0.359375 C 6.015625 -0.617188 6.320312 -1.035156 6.53125 -1.609375 C 6.75 -2.191406 6.859375 -2.96875 6.859375 -3.9375 L 6.859375 -7.109375 C 6.859375 -7.347656 6.859375 -7.566406 6.859375 -7.765625 C 6.859375 -7.960938 6.851562 -8.175781 6.84375 -8.40625 C 6.832031 -8.644531 6.816406 -8.9375 6.796875 -9.28125 L 7.078125 -9.28125 C 7.054688 -8.9375 7.039062 -8.644531 7.03125 -8.40625 C 7.019531 -8.175781 7.015625 -7.960938 7.015625 -7.765625 C 7.015625 -7.566406 7.015625 -7.347656 7.015625 -7.109375 L 7.015625 -3.9375 C 7.015625 -2.925781 6.898438 -2.113281 6.671875 -1.5 C 6.441406 -0.894531 6.101562 -0.453125 5.65625 -0.171875 C 5.207031 0.0976562 4.648438 0.234375 3.984375 0.234375 C 3.472656 0.234375 3.019531 0.164062 2.625 0.03125 C 2.226562 -0.09375 1.890625 -0.3125 1.609375 -0.625 C 1.328125 -0.9375 1.113281 -1.363281 0.96875 -1.90625 C 0.832031 -2.445312 0.765625 -3.125 0.765625 -3.9375 L 0.765625 -7.109375 C 0.765625 -7.347656 0.757812 -7.566406 0.75 -7.765625 C 0.75 -7.960938 0.742188 -8.175781 0.734375 -8.40625 C 0.734375 -8.644531 0.722656 -8.9375 0.703125 -9.28125 Z M 0.703125 -9.28125 "/></g></g></g><g fill="#fb9400" fill-opacity="1"><g transform="translate(247.204573, 283.651208)"><g><path d="M 3.890625 -5.296875 C 4.316406 -5.222656 4.726562 -5.082031 5.125 -4.875 C 5.519531 -4.664062 5.84375 -4.375 6.09375 -4 C 6.351562 -3.632812 6.484375 -3.160156 6.484375 -2.578125 C 6.484375 -2.085938 6.382812 -1.671875 6.1875 -1.328125 C 5.988281 -0.992188 5.722656 -0.726562 5.390625 -0.53125 C 5.054688 -0.34375 4.675781 -0.207031 4.25 -0.125 C 3.832031 -0.0390625 3.390625 0 2.921875 0 L 0.8125 0 C 0.832031 -0.34375 0.847656 -0.628906 0.859375 -0.859375 C 0.867188 -1.097656 0.875 -1.316406 0.875 -1.515625 C 0.875 -1.710938 0.875 -1.929688 0.875 -2.171875 L 0.875 -7.109375 C 0.875 -7.347656 0.875 -7.566406 0.875 -7.765625 C 0.875 -7.960938 0.867188 -8.175781 0.859375 -8.40625 C 0.847656 -8.644531 0.832031 -8.9375 0.8125 -9.28125 L 2.78125 -9.28125 C 3.125 -9.28125 3.476562 -9.253906 3.84375 -9.203125 C 4.207031 -9.160156 4.539062 -9.066406 4.84375 -8.921875 C 5.15625 -8.785156 5.40625 -8.582031 5.59375 -8.3125 C 5.78125 -8.039062 5.875 -7.679688 5.875 -7.234375 C 5.875 -6.703125 5.71875 -6.269531 5.40625 -5.9375 C 5.101562 -5.613281 4.597656 -5.398438 3.890625 -5.296875 Z M 1.546875 -9.140625 L 1.546875 -5.375 L 2.78125 -5.375 C 3.65625 -5.375 4.269531 -5.535156 4.625 -5.859375 C 4.988281 -6.191406 5.171875 -6.648438 5.171875 -7.234375 C 5.171875 -7.640625 5.082031 -7.96875 4.90625 -8.21875 C 4.738281 -8.46875 4.523438 -8.65625 4.265625 -8.78125 C 4.003906 -8.914062 3.722656 -9.007812 3.421875 -9.0625 C 3.128906 -9.113281 2.863281 -9.140625 2.625 -9.140625 Z M 2.734375 -0.15625 C 3.265625 -0.15625 3.753906 -0.234375 4.203125 -0.390625 C 4.660156 -0.554688 5.03125 -0.816406 5.3125 -1.171875 C 5.59375 -1.535156 5.734375 -2.015625 5.734375 -2.609375 C 5.734375 -3.140625 5.632812 -3.570312 5.4375 -3.90625 C 5.238281 -4.25 4.984375 -4.519531 4.671875 -4.71875 C 4.367188 -4.914062 4.054688 -5.050781 3.734375 -5.125 C 3.421875 -5.195312 3.144531 -5.234375 2.90625 -5.234375 L 1.546875 -5.234375 L 1.546875 -0.15625 Z M 2.734375 -0.15625 "/></g></g></g></svg>